<svg width="360" height="800" viewBox="0 0 360 800" fill="none" xmlns="http://www.w3.org/2000/svg">
<g opacity="0.4" clip-path="url(#clip0_79_90)">
<path fill-rule="evenodd" clip-rule="evenodd" d="M-0.5 -0.5C90.1667 -0.5 180.833 -0.5 271.5 -0.5C219.469 52.8631 167.803 106.53 116.5 160.5C93.0078 184.492 69.3411 208.326 45.5 232C34.6303 236.42 24.6303 235.086 15.5 228C10.298 222.63 4.96467 217.464 -0.5 212.5C-0.5 141.5 -0.5 70.5 -0.5 -0.5Z" fill="#BAFFDF"/>
<path fill-rule="evenodd" clip-rule="evenodd" d="M271.5 -0.5C286.167 -0.5 300.833 -0.5 315.5 -0.5C257.566 60.2688 199.066 120.602 140 180.5C139.536 181.094 139.369 181.761 139.5 182.5C139.167 182.5 138.833 182.5 138.5 182.5C138.631 181.761 138.464 181.094 138 180.5C131.264 173.261 124.098 166.594 116.5 160.5C167.803 106.53 219.469 52.8631 271.5 -0.5Z" fill="#D6FFEC"/>
<path fill-rule="evenodd" clip-rule="evenodd" d="M315.5 -0.5C330.167 -0.5 344.833 -0.5 359.5 -0.5C359.5 28.5 359.5 57.5 359.5 86.5C319.867 126.967 280.367 167.634 241 208.5C233.137 216.698 224.97 224.531 216.5 232C207.627 235.65 198.96 235.317 190.5 231C173.631 214.629 156.631 198.463 139.5 182.5C139.369 181.761 139.536 181.094 140 180.5C199.066 120.602 257.566 60.2688 315.5 -0.5Z" fill="#9AFFD1"/>
<path fill-rule="evenodd" clip-rule="evenodd" d="M359.5 86.5C359.5 202.5 359.5 318.5 359.5 434.5C349.806 444.193 340.473 454.193 331.5 464.5C331.167 464.5 330.833 464.5 330.5 464.5C326.433 458.925 321.766 453.759 316.5 449C291.5 425.333 266.5 401.667 241.5 378C233.013 374.448 224.679 374.781 216.5 379C206.961 387.038 198.294 395.872 190.5 405.5C190.167 405.5 189.833 405.5 189.5 405.5C148.866 365.701 108.033 326.034 67 286.5C61.0049 276.462 61.0049 266.462 67 256.5C91.0365 231.965 114.87 207.298 138.5 182.5C138.833 182.5 139.167 182.5 139.5 182.5C156.631 198.463 173.631 214.629 190.5 231C198.96 235.317 207.627 235.65 216.5 232C224.97 224.531 233.137 216.698 241 208.5C280.367 167.634 319.867 126.967 359.5 86.5Z" fill="#B2FFDC"/>
<path fill-rule="evenodd" clip-rule="evenodd" d="M116.5 160.5C124.098 166.594 131.264 173.261 138 180.5C138.464 181.094 138.631 181.761 138.5 182.5C114.87 207.298 91.0365 231.965 67 256.5C61.0049 266.462 61.0049 276.462 67 286.5C108.033 326.034 148.866 365.701 189.5 405.5C183.092 412.575 176.425 419.242 169.5 425.5C130.731 388.9 92.3979 351.733 54.5 314C50.1667 310.333 45.8333 306.667 41.5 303C31.6058 298.966 22.2725 299.966 13.5 306C8.60254 310.729 3.93588 315.562 -0.5 320.5C-0.5 284.5 -0.5 248.5 -0.5 212.5C4.96467 217.464 10.298 222.63 15.5 228C24.6303 235.086 34.6303 236.42 45.5 232C69.3411 208.326 93.0078 184.492 116.5 160.5Z" fill="#FEFFFE"/>
<path fill-rule="evenodd" clip-rule="evenodd" d="M169.5 425.5C169.5 425.833 169.5 426.167 169.5 426.5C112.806 484.86 56.1392 543.193 -0.5 601.5C-0.5 507.833 -0.5 414.167 -0.5 320.5C3.93588 315.562 8.60254 310.729 13.5 306C22.2725 299.966 31.6058 298.966 41.5 303C45.8333 306.667 50.1667 310.333 54.5 314C92.3979 351.733 130.731 388.9 169.5 425.5Z" fill="#CCFFE7"/>
<path fill-rule="evenodd" clip-rule="evenodd" d="M330.5 464.5C322.032 473.801 313.032 482.634 303.5 491C292.63 495.42 282.63 494.086 273.5 487C245.633 459.966 217.967 432.799 190.5 405.5C198.294 395.872 206.961 387.038 216.5 379C224.679 374.781 233.013 374.448 241.5 378C266.5 401.667 291.5 425.333 316.5 449C321.766 453.759 326.433 458.925 330.5 464.5Z" fill="#9AFFD1"/>
<path fill-rule="evenodd" clip-rule="evenodd" d="M189.5 405.5C189.833 405.5 190.167 405.5 190.5 405.5C217.967 432.799 245.633 459.966 273.5 487C282.63 494.086 292.63 495.42 303.5 491C313.032 482.634 322.032 473.801 330.5 464.5C330.833 464.5 331.167 464.5 331.5 464.5C337.146 469.812 342.813 475.145 348.5 480.5C352.187 477.145 355.853 473.811 359.5 470.5C359.5 477.167 359.5 483.833 359.5 490.5C356.369 487.871 353.369 485.038 350.5 482C349.5 481.333 348.5 481.333 347.5 482C267.333 564.833 187.167 647.667 107 730.5C101.099 740.42 101.099 750.42 107 760.5C120.146 773.63 133.312 786.63 146.5 799.5C119.5 799.5 92.5 799.5 65.5 799.5C54.5266 788.861 43.5266 778.194 32.5 767.5C32.5 767.167 32.5 766.833 32.5 766.5C105.103 691.395 177.936 616.395 251 541.5C260.155 530.325 260.822 518.658 253 506.5C225.601 479.265 197.768 452.599 169.5 426.5C169.5 426.167 169.5 425.833 169.5 425.5C176.425 419.242 183.092 412.575 189.5 405.5Z" fill="#D6FFEC"/>
<path fill-rule="evenodd" clip-rule="evenodd" d="M169.5 426.5C197.768 452.599 225.601 479.265 253 506.5C260.822 518.658 260.155 530.325 251 541.5C177.936 616.395 105.103 691.395 32.5 766.5C21.52 756.522 10.52 746.522 -0.5 736.5C-0.5 691.5 -0.5 646.5 -0.5 601.5C56.1392 543.193 112.806 484.86 169.5 426.5Z" fill="#AFFFDA"/>
<path fill-rule="evenodd" clip-rule="evenodd" d="M359.5 434.5C359.5 446.5 359.5 458.5 359.5 470.5C355.853 473.811 352.187 477.145 348.5 480.5C342.813 475.145 337.146 469.812 331.5 464.5C340.473 454.193 349.806 444.193 359.5 434.5Z" fill="#FEFFFE"/>
<path fill-rule="evenodd" clip-rule="evenodd" d="M359.5 490.5C359.5 564.167 359.5 637.833 359.5 711.5C330.498 740.502 301.831 769.835 273.5 799.5C231.167 799.5 188.833 799.5 146.5 799.5C133.312 786.63 120.146 773.63 107 760.5C101.099 750.42 101.099 740.42 107 730.5C187.167 647.667 267.333 564.833 347.5 482C348.5 481.333 349.5 481.333 350.5 482C353.369 485.038 356.369 487.871 359.5 490.5Z" fill="#B7FFDE"/>
<path fill-rule="evenodd" clip-rule="evenodd" d="M359.5 711.5C359.5 740.833 359.5 770.167 359.5 799.5C330.833 799.5 302.167 799.5 273.5 799.5C301.831 769.835 330.498 740.502 359.5 711.5Z" fill="#D6FFEC"/>
<path fill-rule="evenodd" clip-rule="evenodd" d="M-0.5 736.5C10.52 746.522 21.52 756.522 32.5 766.5C32.5 766.833 32.5 767.167 32.5 767.5C21.4673 777.532 11.134 788.199 1.5 799.5C0.833333 799.5 0.166667 799.5 -0.5 799.5C-0.5 778.5 -0.5 757.5 -0.5 736.5Z" fill="#CCFFE7"/>
<path fill-rule="evenodd" clip-rule="evenodd" d="M32.5 767.5C43.5266 778.194 54.5266 788.861 65.5 799.5C44.1667 799.5 22.8333 799.5 1.5 799.5C11.134 788.199 21.4673 777.532 32.5 767.5Z" fill="#FEFFFE"/>
</g>
<defs>
<clipPath id="clip0_79_90">
<rect width="360" height="800" fill="white"/>
</clipPath>
</defs>
</svg>
