<svg width="170" height="157" viewBox="0 0 170 157" fill="none" xmlns="http://www.w3.org/2000/svg">
<g id="mycampusLogo 4" filter="url(#filter0_d_81_859)">
<g clip-path="url(#clip0_81_859)">
<g id="Group">
<path id="Vector" fill-rule="evenodd" clip-rule="evenodd" d="M19.935 19.9415C63.2683 19.9415 106.602 19.9415 149.935 19.9415C149.935 58.9415 149.935 97.9415 149.935 136.941C106.602 136.941 63.2683 136.941 19.935 136.941C19.935 97.9415 19.935 58.9415 19.935 19.9415Z" fill="#FEFEFE"/>
</g>
<g id="Group_2">
<path id="Vector_2" fill-rule="evenodd" clip-rule="evenodd" d="M84.675 42.9905C85.5968 43.1053 86.4201 43.4367 87.145 43.985C87.8699 44.1516 88.4766 44.4832 88.965 44.9795C89.5297 45.0827 90.0064 45.3167 90.395 45.6815C92.5237 46.6776 94.6037 47.7501 96.635 48.899C98.5664 49.6938 100.43 50.6102 102.225 51.6485C102.769 51.7319 103.202 51.9659 103.525 52.3505C106.018 53.4912 108.444 54.7197 110.805 56.036C111.541 56.3477 112.278 56.6596 113.015 56.972C113.551 57.3861 114.158 57.6786 114.835 57.8495C114.835 57.9665 114.835 58.0835 114.835 58.2005C116.268 58.5735 117.568 59.178 118.735 60.014C118.858 60.0705 118.988 60.0899 119.125 60.0725C119.125 60.2285 119.125 60.3845 119.125 60.5405C118.718 60.6272 118.328 60.7442 117.955 60.8915C117.955 61.0085 117.955 61.1255 117.955 61.2425C116.773 61.5797 115.69 62.1062 114.705 62.822C114.124 62.8848 113.647 63.1188 113.275 63.524C112.113 63.9301 111.03 64.4566 110.025 65.1035C109.767 65.0898 109.55 65.1678 109.375 65.3375C109.237 65.2293 109.237 65.1123 109.375 64.9865C109.255 64.7076 109.016 64.5906 108.66 64.6355C103.796 65.1209 99.0512 66.0375 94.425 67.385C94.053 67.5886 93.6846 67.8032 93.32 68.0285C92.5915 68.1798 91.898 68.4138 91.24 68.7305C90.5319 69.2713 89.7736 69.7393 88.965 70.1345C88.6617 70.3295 88.4017 70.5635 88.185 70.8365C88.0304 70.9452 87.8571 70.9841 87.665 70.9535C87.6752 71.1208 87.632 71.2769 87.535 71.4215C86.9333 71.8053 86.5433 72.3122 86.365 72.9425C86.5571 72.9732 86.7304 72.9342 86.885 72.8255C87.9878 71.8881 89.2228 71.1081 90.59 70.4855C92.1868 69.8777 93.7901 69.2927 95.4 68.7305C96.8444 68.3392 98.296 67.9688 99.755 67.619C101.308 67.4913 102.825 67.2378 104.305 66.8585C105.081 66.7223 105.861 66.6638 106.645 66.683C106.443 66.7672 106.313 66.9038 106.255 67.0925C105.269 67.4372 104.316 67.8273 103.395 68.2625C103.395 68.3795 103.395 68.4965 103.395 68.6135C102.927 68.636 102.537 68.792 102.225 69.0815C101.835 69.1716 101.489 69.3277 101.185 69.5495C99.6917 70.1746 98.2834 70.9157 96.96 71.7725C96.3267 72.016 95.6985 72.2694 95.075 72.533C94.8583 72.65 94.685 72.806 94.555 73.001C93.7834 73.3342 93.0034 73.6462 92.215 73.937C91.6675 74.4342 91.0175 74.7852 90.265 74.99C89.9349 75.2857 89.5666 75.5392 89.16 75.7505C88.1824 76.1222 87.2507 76.5707 86.365 77.096C85.8575 77.3391 85.3375 77.5537 84.805 77.7395C84.6037 77.52 84.3437 77.403 84.025 77.3885C83.8491 77.1266 83.5891 76.9707 83.245 76.9205C83.0457 76.7163 82.7857 76.5993 82.465 76.5695C80.645 75.4981 78.7383 74.5426 76.745 73.703C75.9253 73.199 75.102 72.7114 74.275 72.2405C73.9771 72.0925 73.6737 71.9365 73.365 71.7725C72.1386 71.2352 70.9253 70.6698 69.725 70.076C69.3521 69.6742 68.8754 69.4596 68.295 69.4325C68.295 69.3155 68.295 69.1985 68.295 69.0815C68.0267 69.0596 67.7667 69.0011 67.515 68.906C67.0782 68.54 66.6015 68.228 66.085 67.97C65.3628 67.7031 64.6694 67.4106 64.005 67.0925C63.9363 66.9496 63.8496 66.8132 63.745 66.683C64.3964 66.6245 65.0464 66.644 65.695 66.7415C68.1637 67.2229 70.6554 67.691 73.17 68.1455C74.0272 68.4775 74.9156 68.7115 75.835 68.8475C77.465 69.4851 79.09 70.1092 80.71 70.7195C81.016 71.0856 81.4277 71.3 81.945 71.363C82.1157 71.6351 82.3757 71.7911 82.725 71.831C83.1181 72.4552 83.6814 72.7867 84.415 72.8255C83.5116 71.5249 82.3633 70.433 80.97 69.5495C78.1481 68.0143 75.1148 66.8834 71.87 66.1565C68.4594 65.4536 65.0144 64.9465 61.535 64.6355C61.584 64.9894 61.6057 65.3404 61.6 65.6885C61.4089 65.5988 61.2139 65.5208 61.015 65.4545C58.3766 64.1396 55.7549 62.7747 53.15 61.3595C52.9628 61.2837 52.7678 61.2447 52.565 61.2425C52.565 62.6465 52.565 64.0505 52.565 65.4545C52.565 66.4295 52.565 67.4045 52.565 68.3795C52.5217 72.8262 52.565 77.2722 52.695 81.7175C52.9337 81.7793 53.1504 81.8572 53.345 81.9515C53.4852 82.1905 53.702 82.3465 53.995 82.4195C54.2672 82.6604 54.5056 82.9335 54.71 83.2385C55.383 86.181 54.0614 87.5656 50.745 87.392C48.6251 86.4008 48.0401 84.8993 48.99 82.8875C49.3533 82.5001 49.7649 82.1882 50.225 81.9515C50.4807 81.9795 50.7191 81.9405 50.94 81.8345C51.005 74.5806 51.0267 67.3266 51.005 60.0725C52.1423 59.4361 53.3123 58.8511 54.515 58.3175C54.7807 58.1996 55.0407 58.0826 55.295 57.9665C56.6908 57.1796 58.1208 56.4386 59.585 55.7435C59.9061 55.7255 60.1661 55.6085 60.365 55.3925C61.9209 54.6032 63.4809 53.7842 65.045 52.9355C65.4709 52.7835 65.9043 52.6276 66.345 52.4675C66.3922 52.3876 66.4355 52.3095 66.475 52.2335C67.0757 51.8063 67.7257 51.4359 68.425 51.122C68.7224 51.0258 69.0258 50.9478 69.335 50.888C70.1022 50.3317 70.9472 49.8831 71.87 49.5425C72.3014 49.1063 72.843 48.8332 73.495 48.7235C73.6312 48.6009 73.7612 48.4839 73.885 48.3725C74.0635 48.3909 74.2369 48.3713 74.405 48.314C74.8701 48.0864 75.3035 47.8329 75.705 47.5535C77.5992 46.3975 79.5926 45.3836 81.685 44.5115C82.1011 44.4087 82.4478 44.2137 82.725 43.9265C82.8803 43.9057 83.032 43.8667 83.18 43.8095C83.3556 43.6319 83.5506 43.4759 83.765 43.3415C84.1499 43.3457 84.4532 43.2287 84.675 42.9905Z" fill="#302F2A"/>
</g>
<g id="Group_3">
<path id="Vector_3" fill-rule="evenodd" clip-rule="evenodd" d="M84.675 42.9905C84.4532 43.2287 84.1499 43.3457 83.765 43.3415C84.0016 43.1136 84.305 42.9966 84.675 42.9905Z" fill="#999996"/>
</g>
<g id="Group_4">
<path id="Vector_4" fill-rule="evenodd" clip-rule="evenodd" d="M82.725 43.9265C82.4478 44.2137 82.1011 44.4087 81.685 44.5115C81.8717 44.3263 82.0883 44.1508 82.335 43.985C82.4582 43.9285 82.5882 43.9091 82.725 43.9265Z" fill="#92928F"/>
</g>
<g id="Group_5">
<path id="Vector_5" fill-rule="evenodd" clip-rule="evenodd" d="M75.705 47.5535C75.3036 47.8329 74.8701 48.0864 74.405 48.314C74.2369 48.3713 74.0635 48.3909 73.885 48.3725C74.4366 48.0309 75.0433 47.7579 75.705 47.5535Z" fill="#72716E"/>
</g>
<g id="Group_6">
<path id="Vector_6" fill-rule="evenodd" clip-rule="evenodd" d="M66.475 52.2335C66.4355 52.3096 66.3922 52.3876 66.345 52.4675C65.9043 52.6276 65.4709 52.7835 65.045 52.9355C65.4373 52.5701 65.9139 52.3361 66.475 52.2335Z" fill="#797875"/>
</g>
<g id="Group_7">
<path id="Vector_7" fill-rule="evenodd" clip-rule="evenodd" d="M88.315 52.8185C88.332 52.716 88.2888 52.638 88.185 52.5845C87.9181 52.9783 87.6148 53.3293 87.275 53.6375C86.9953 53.57 86.952 53.4335 87.145 53.228C86.4376 52.7772 86.4593 52.6796 87.21 52.9355C87.4339 52.9225 87.4555 52.864 87.275 52.76C87.0844 52.6857 86.911 52.5881 86.755 52.4675C86.5068 52.5667 86.2468 52.6058 85.975 52.5845C86.0035 52.722 85.9602 52.839 85.845 52.9355C85.2054 52.8947 84.5554 52.8947 83.895 52.9355C83.895 53.0915 83.895 53.2475 83.895 53.4035C83.7828 53.2908 83.6961 53.2908 83.635 53.4035C83.7052 53.5495 83.7919 53.6861 83.895 53.813C83.8517 53.8325 83.8083 53.852 83.765 53.8715C83.5826 53.6293 83.3659 53.4343 83.115 53.2865C82.7314 53.1333 82.5581 52.8603 82.595 52.4675C83.1853 52.553 83.7053 52.436 84.155 52.1165C84.7538 52.3511 85.1871 52.1951 85.455 51.6485C85.6171 51.8291 85.7904 52.0046 85.975 52.175C86.2627 52.2482 86.5444 52.2287 86.82 52.1165C87.0574 52.3236 87.339 52.4795 87.665 52.5845C87.9132 52.4853 88.1732 52.4462 88.445 52.4675C88.4758 52.6185 88.4325 52.7355 88.315 52.8185Z" fill="#494946"/>
</g>
<g id="Group_8">
<path id="Vector_8" fill-rule="evenodd" clip-rule="evenodd" d="M87.275 53.6375C87.292 53.74 87.2488 53.818 87.145 53.8715C86.2479 53.619 85.3379 53.5801 84.415 53.7545C84.1436 53.7405 83.9702 53.6235 83.895 53.4035C83.895 53.2475 83.895 53.0915 83.895 52.9355C84.5554 52.8947 85.2054 52.8947 85.845 52.9355C85.9602 52.839 86.0035 52.722 85.975 52.5845C86.2468 52.6058 86.5068 52.5667 86.755 52.4675C86.911 52.5881 87.0844 52.6857 87.275 52.76C87.4555 52.864 87.4339 52.9225 87.21 52.9355C86.4593 52.6796 86.4376 52.7772 87.145 53.228C86.952 53.4335 86.9953 53.57 87.275 53.6375Z" fill="#31302B"/>
</g>
<g id="Group_9">
<path id="Vector_9" fill-rule="evenodd" clip-rule="evenodd" d="M88.315 52.8185C88.0133 53.2041 87.71 53.5941 87.405 53.9885C87.3449 54.15 87.2149 54.228 87.015 54.2225C85.9525 54.0683 84.8908 54.0683 83.83 54.2225C83.6609 54.2062 83.5526 54.1283 83.505 53.9885C83.3067 53.7877 83.1767 53.5537 83.115 53.2865C83.3659 53.4343 83.5826 53.6293 83.765 53.8715C83.8083 53.852 83.8517 53.8325 83.895 53.813C83.7919 53.6861 83.7052 53.5495 83.635 53.4035C83.6961 53.2908 83.7828 53.2908 83.895 53.4035C83.9701 53.6235 84.1436 53.7405 84.415 53.7545C85.3379 53.5801 86.2479 53.619 87.145 53.8715C87.2487 53.818 87.292 53.74 87.275 53.6375C87.6148 53.3293 87.9181 52.9783 88.185 52.5845C88.2887 52.638 88.332 52.716 88.315 52.8185Z" fill="#616160"/>
</g>
<g id="Group_10">
<path id="Vector_10" fill-rule="evenodd" clip-rule="evenodd" d="M83.505 53.9885C83.5526 54.1283 83.6609 54.2062 83.83 54.2225C84.8908 54.0683 85.9525 54.0683 87.015 54.2225C87.2149 54.228 87.3449 54.15 87.405 53.9885C87.6062 54.0261 87.6929 54.1431 87.665 54.3395C87.4972 54.3118 87.3672 54.3507 87.275 54.4565C86.0617 54.4565 84.8483 54.4565 83.635 54.4565C83.5339 54.3797 83.4473 54.2823 83.375 54.164C83.3841 54.0745 83.4274 54.016 83.505 53.9885Z" fill="#171716"/>
</g>
<g id="Group_11">
<path id="Vector_11" fill-rule="evenodd" clip-rule="evenodd" d="M60.365 55.3925C60.1661 55.6085 59.9061 55.7255 59.585 55.7435C59.7839 55.5275 60.0439 55.4105 60.365 55.3925Z" fill="#868683"/>
</g>
<g id="Group_12">
<path id="Vector_12" fill-rule="evenodd" clip-rule="evenodd" d="M83.635 54.4565C84.8483 54.4565 86.0617 54.4565 87.275 54.4565C88.186 54.4371 89.096 54.4565 90.005 54.515C90.2997 54.6415 90.3214 54.817 90.07 55.0415C89.9743 57.1862 89.8877 59.3312 89.81 61.4765C89.7667 60.4235 89.7233 59.3705 89.68 58.3175C89.6987 59.416 89.5903 60.469 89.355 61.4765C89.355 60.5405 89.355 59.6045 89.355 58.6685C89.355 57.5375 89.355 56.4065 89.355 55.2755C89.4256 55.2685 89.4689 55.2295 89.485 55.1585C88.1444 55.0416 86.8012 55.0027 85.455 55.0415C84.0683 55.0415 82.6817 55.0415 81.295 55.0415C81.295 56.2115 81.295 57.3815 81.295 58.5515C81.2551 59.7311 81.2984 60.9011 81.425 62.0615C81.2746 62.5248 81.4913 62.7978 82.075 62.8805C81.5034 62.9406 81.0918 62.7066 80.84 62.1785C80.7317 59.7985 80.7534 57.4195 80.905 55.0415C83.9337 54.9646 86.967 54.8866 90.005 54.8075C86.9717 54.7295 83.9383 54.6515 80.905 54.5735C81.8108 54.4569 82.7208 54.4179 83.635 54.4565Z" fill="#42423E"/>
</g>
<g id="Group_13">
<path id="Vector_13" fill-rule="evenodd" clip-rule="evenodd" d="M85.455 55.0415C86.8012 55.0027 88.1445 55.0416 89.485 55.1585C89.4689 55.2295 89.4256 55.2685 89.355 55.2755C89.355 56.4065 89.355 57.5375 89.355 58.6685C88.055 58.6685 86.755 58.6685 85.455 58.6685C85.455 58.6295 85.455 58.5905 85.455 58.5515C85.455 57.3815 85.455 56.2115 85.455 55.0415Z" fill="#499E6C"/>
</g>
<g id="Group_14">
<path id="Vector_14" fill-rule="evenodd" clip-rule="evenodd" d="M85.455 55.0415C85.455 56.2115 85.455 57.3815 85.455 58.5515C85.4117 58.5515 85.3683 58.5515 85.325 58.5515C85.325 57.4205 85.325 56.2895 85.325 55.1585C84.025 55.1585 82.725 55.1585 81.425 55.1585C81.425 56.2895 81.425 57.4205 81.425 58.5515C81.3817 58.5515 81.3383 58.5515 81.295 58.5515C81.295 57.3815 81.295 56.2115 81.295 55.0415C82.6817 55.0415 84.0683 55.0415 85.455 55.0415Z" fill="#AA5148"/>
</g>
<g id="Group_15">
<path id="Vector_15" fill-rule="evenodd" clip-rule="evenodd" d="M85.325 58.5515C84.025 58.5515 82.725 58.5515 81.425 58.5515C81.425 57.4205 81.425 56.2895 81.425 55.1585C82.725 55.1585 84.025 55.1585 85.325 55.1585C85.325 56.2895 85.325 57.4205 85.325 58.5515Z" fill="#EF2428"/>
</g>
<g id="Group_16">
<path id="Vector_16" fill-rule="evenodd" clip-rule="evenodd" d="M89.355 55.2755C89.2258 56.3463 89.1825 57.4382 89.225 58.5515C88.0117 58.5515 86.7983 58.5515 85.585 58.5515C85.585 57.4205 85.585 56.2895 85.585 55.1585C86.8653 55.1202 88.1218 55.1592 89.355 55.2755Z" fill="#16AA56"/>
</g>
<g id="Group_17">
<path id="Vector_17" fill-rule="evenodd" clip-rule="evenodd" d="M85.845 56.9135C86.0462 56.8759 86.1329 56.7589 86.105 56.5625C86.2783 56.5625 86.4517 56.5625 86.625 56.5625C86.5942 56.4115 86.6375 56.2945 86.755 56.2115C86.8395 56.2471 86.9262 56.286 87.015 56.3285C87.1387 56.1477 87.182 55.9527 87.145 55.7435C87.275 55.7435 87.405 55.7435 87.535 55.7435C87.535 55.8995 87.535 56.0555 87.535 56.2115C87.7486 56.2138 87.9219 56.1358 88.055 55.9775C88.1392 56.4616 88.3559 56.5397 88.705 56.2115C88.8287 56.3324 88.8287 56.4689 88.705 56.621C88.8861 56.7732 88.9511 56.9487 88.9 57.1475C88.1248 57.5919 87.2798 57.7284 86.365 57.557C85.8744 57.493 85.7011 57.2784 85.845 56.9135Z" fill="#E1F4EA"/>
</g>
<g id="Group_18">
<path id="Vector_18" fill-rule="evenodd" clip-rule="evenodd" d="M86.755 56.6795C87.1905 56.6602 87.6238 56.6797 88.055 56.738C88.5932 56.9577 88.5715 57.1332 87.99 57.2645C87.8085 57.1599 87.6135 57.0819 87.405 57.0305C87.0928 57.2117 86.7462 57.2898 86.365 57.2645C86.3403 56.9768 86.4703 56.7818 86.755 56.6795Z" fill="#2CAB5C"/>
</g>
<g id="Group_19">
<path id="Vector_19" fill-rule="evenodd" clip-rule="evenodd" d="M86.755 56.2115C86.6375 56.2945 86.5942 56.4115 86.625 56.5625C86.4517 56.5625 86.2783 56.5625 86.105 56.5625C86.1329 56.7589 86.0462 56.8759 85.845 56.9135C85.8701 56.7279 85.9135 56.5329 85.975 56.3285C86.1558 56.4625 86.3291 56.4625 86.495 56.3285C86.3461 56.1658 86.3461 56.0098 86.495 55.8605C86.6794 55.9196 86.766 56.0366 86.755 56.2115Z" fill="#8FD5AF"/>
</g>
<g id="Group_20">
<path id="Vector_20" fill-rule="evenodd" clip-rule="evenodd" d="M83.765 55.2755C84.155 55.2755 84.545 55.2755 84.935 55.2755C84.9453 55.4428 84.902 55.5989 84.805 55.7435C85.0016 55.8311 85.1316 55.9677 85.195 56.153C85.0017 56.4831 84.72 56.7365 84.35 56.9135C84.2872 57.0244 84.2656 57.1414 84.285 57.2645C84.8619 57.1387 85.1219 57.3338 85.065 57.8495C84.6981 57.8703 84.3514 57.9484 84.025 58.0835C83.5621 57.9306 83.0855 57.8331 82.595 57.791C82.3628 57.6992 82.1678 57.5627 82.01 57.3815C81.9117 56.8915 81.7601 56.4235 81.555 55.9775C81.9316 55.8126 82.2782 55.8516 82.595 56.0945C82.9563 55.7671 83.3463 55.4941 83.765 55.2755Z" fill="#F47873"/>
</g>
<g id="Group_21">
<path id="Vector_21" fill-rule="evenodd" clip-rule="evenodd" d="M83.895 55.5095C84.1159 55.4908 84.3326 55.5102 84.545 55.568C84.3558 55.8039 84.0958 55.9013 83.765 55.8605C83.667 56.251 83.4503 56.5826 83.115 56.855C83.1966 57.1505 83.3699 57.248 83.635 57.1475C83.9688 57.4069 84.3588 57.5434 84.805 57.557C84.4968 57.643 84.1933 57.7405 83.895 57.8495C83.4388 57.6659 82.9621 57.5295 82.465 57.44C82.0947 57.0383 82.008 56.5899 82.205 56.0945C82.3936 56.3354 82.6536 56.4524 82.985 56.4455C83.0617 55.9478 83.3651 55.6359 83.895 55.5095Z" fill="#ED2125"/>
</g>
<g id="Group_22">
<path id="Vector_22" fill-rule="evenodd" clip-rule="evenodd" d="M55.295 57.9665C55.0407 58.0826 54.7807 58.1996 54.515 58.3175C54.6693 58.0279 54.9293 57.9109 55.295 57.9665Z" fill="#898885"/>
</g>
<g id="Group_23">
<path id="Vector_23" fill-rule="evenodd" clip-rule="evenodd" d="M81.425 58.5515C82.725 58.5515 84.025 58.5515 85.325 58.5515C85.3683 58.5515 85.4117 58.5515 85.455 58.5515C85.455 58.5905 85.455 58.6295 85.455 58.6685C85.455 59.9555 85.455 61.2425 85.455 62.5295C85.6717 62.5295 85.8883 62.5295 86.105 62.5295C85.8311 62.6428 85.5277 62.6818 85.195 62.6465C84.982 62.5111 84.7655 62.3746 84.545 62.237C83.6319 62.2172 82.7219 62.1587 81.815 62.0615C81.6616 61.8329 81.575 61.5793 81.555 61.301C81.5558 61.0631 81.5991 60.8487 81.685 60.6575C82.3438 61.0085 82.9071 61.4375 83.375 61.9445C83.4617 61.925 83.5483 61.9055 83.635 61.886C83.9705 61.3106 84.4472 60.8426 85.065 60.482C84.9923 60.226 84.8189 60.1481 84.545 60.248C84.1706 60.6244 83.7589 60.9558 83.31 61.2425C82.9444 60.9135 82.5761 60.582 82.205 60.248C82.0193 60.1803 81.8459 60.1998 81.685 60.3065C81.5923 59.7334 81.5057 59.1484 81.425 58.5515Z" fill="#A57569"/>
</g>
<g id="Group_24">
<path id="Vector_24" fill-rule="evenodd" clip-rule="evenodd" d="M85.455 58.6685C86.755 58.6685 88.055 58.6685 89.355 58.6685C89.355 59.6045 89.355 60.5405 89.355 61.4765C89.4095 61.807 89.2795 62.0604 88.965 62.237C88.0115 62.3646 87.0582 62.4621 86.105 62.5295C85.8883 62.5295 85.6717 62.5295 85.455 62.5295C85.455 61.2425 85.455 59.9555 85.455 58.6685Z" fill="#BBBDBF"/>
</g>
<g id="Group_25">
<path id="Vector_25" fill-rule="evenodd" clip-rule="evenodd" d="M83.245 59.1365C83.5848 59.1777 83.8015 59.3532 83.895 59.663C83.7847 59.9871 83.7415 60.3186 83.765 60.6575C83.5483 60.6575 83.3317 60.6575 83.115 60.6575C83.1431 60.3145 83.0564 60.0025 82.855 59.7215C82.9319 59.4965 83.0619 59.3016 83.245 59.1365Z" fill="#E1D6D3"/>
</g>
<g id="Group_26">
<path id="Vector_26" fill-rule="evenodd" clip-rule="evenodd" d="M83.245 59.6045C83.375 59.6045 83.505 59.6045 83.635 59.6045C83.635 59.7215 83.635 59.8385 83.635 59.9555C83.505 59.9555 83.375 59.9555 83.245 59.9555C83.245 59.8385 83.245 59.7215 83.245 59.6045Z" fill="#4D4F50"/>
</g>
<g id="Group_27">
<path id="Vector_27" fill-rule="evenodd" clip-rule="evenodd" d="M75.185 60.0725C76.7067 60.875 78.18 61.7525 79.605 62.705C80.6107 63.6348 81.6291 64.5514 82.66 65.4545C83.2708 66.2007 83.8342 66.9806 84.35 67.7945C84.5587 68.3706 84.7971 68.9361 85.065 69.491C85.0433 69.5885 85.0217 69.686 85 69.7835C83.0257 67.4744 80.6424 65.6024 77.85 64.1675C76.8954 63.7193 75.9204 63.3293 74.925 62.9975C74.8486 61.9909 74.9352 61.016 75.185 60.0725Z" fill="#B6B6B9"/>
</g>
<g id="Group_28">
<path id="Vector_28" fill-rule="evenodd" clip-rule="evenodd" d="M95.725 62.8805C95.2963 63.3029 94.7547 63.5369 94.1 63.5825C93.1083 63.9895 92.1767 64.477 91.305 65.045C90.0634 65.819 88.8934 66.6769 87.795 67.619C87.1489 68.34 86.4989 69.0615 85.845 69.7835C85.7261 69.6866 85.6395 69.5696 85.585 69.4325C86.3992 67.5914 87.5909 65.9924 89.16 64.6355C89.485 64.031 89.9833 63.5825 90.655 63.29C90.9816 62.9377 91.3282 62.6063 91.695 62.2955C92.5551 61.8513 93.3568 61.3443 94.1 60.7745C94.4799 60.6711 94.8482 60.5541 95.205 60.4235C95.4055 60.3298 95.6221 60.2908 95.855 60.3065C95.8936 61.1746 95.8503 62.0327 95.725 62.8805Z" fill="#B5B6B9"/>
</g>
<g id="Group_29">
<path id="Vector_29" fill-rule="evenodd" clip-rule="evenodd" d="M51.005 60.0725C51.0267 67.3266 51.005 74.5806 50.94 81.8345C50.7191 81.9405 50.4807 81.9795 50.225 81.9515C50.4041 81.8656 50.5991 81.7876 50.81 81.7175C50.8317 74.4828 50.8967 67.2679 51.005 60.0725Z" fill="#999896"/>
</g>
<g id="Group_30">
<path id="Vector_30" fill-rule="evenodd" clip-rule="evenodd" d="M81.295 58.5515C81.3383 58.5515 81.3817 58.5515 81.425 58.5515C81.5057 59.1484 81.5923 59.7334 81.685 60.3065C81.685 60.4235 81.685 60.5405 81.685 60.6575C81.5991 60.8487 81.5558 61.0631 81.555 61.301C81.575 61.5793 81.6616 61.8329 81.815 62.0615C82.7219 62.1587 83.6319 62.2172 84.545 62.237C84.7655 62.3746 84.9821 62.5111 85.195 62.6465C84.9837 62.743 84.767 62.7041 84.545 62.5295C83.6381 62.4323 82.7281 62.3738 81.815 62.354C81.6602 62.2723 81.5302 62.1749 81.425 62.0615C81.2984 60.9011 81.2551 59.7311 81.295 58.5515Z" fill="#AC8E85"/>
</g>
<g id="Group_31">
<path id="Vector_31" fill-rule="evenodd" clip-rule="evenodd" d="M95.725 62.8805C95.8503 62.0327 95.8936 61.1746 95.855 60.3065C95.6221 60.2908 95.4055 60.3298 95.205 60.4235C95.3894 60.212 95.6494 60.1339 95.985 60.1895C96.0672 61.134 95.9805 62.0311 95.725 62.8805Z" fill="#70706F"/>
</g>
<g id="Group_32">
<path id="Vector_32" fill-rule="evenodd" clip-rule="evenodd" d="M87.405 59.3705C87.535 59.3705 87.665 59.3705 87.795 59.3705C87.7982 59.7753 87.8849 60.1654 88.055 60.5405C88.2717 60.3845 88.4883 60.2285 88.705 60.0725C88.7483 60.1505 88.7917 60.2285 88.835 60.3065C88.6259 60.7207 88.3226 61.0717 87.925 61.3595C87.8383 61.6325 87.7517 61.9055 87.665 62.1785C87.5612 61.9939 87.4962 61.799 87.47 61.5935C86.8 61.3025 86.3017 60.8539 85.975 60.248C86.0183 60.1895 86.0617 60.131 86.105 60.0725C86.3507 60.3156 86.6541 60.4716 87.015 60.5405C87.0819 60.1215 87.2119 59.7316 87.405 59.3705Z" fill="#27A85B"/>
</g>
<g id="Group_33">
<path id="Vector_33" fill-rule="evenodd" clip-rule="evenodd" d="M81.685 60.6575C81.685 60.5405 81.685 60.4235 81.685 60.3065C81.8459 60.1998 82.0194 60.1803 82.205 60.248C82.5761 60.582 82.9444 60.9135 83.31 61.2425C83.7589 60.9559 84.1706 60.6244 84.545 60.248C84.8189 60.1481 84.9923 60.226 85.065 60.482C84.4472 60.8426 83.9705 61.3106 83.635 61.886C83.5483 61.9055 83.4617 61.925 83.375 61.9445C82.9071 61.4375 82.3438 61.0085 81.685 60.6575Z" fill="#F3EEEC"/>
</g>
<g id="Group_34">
<path id="Vector_34" fill-rule="evenodd" clip-rule="evenodd" d="M68.945 61.5935C70.759 62.1356 72.5574 62.7206 74.34 63.3485C75.3692 63.9036 76.4309 64.391 77.525 64.811C78.2894 65.3421 79.1127 65.8101 79.995 66.215C80.811 66.7574 81.5477 67.3814 82.205 68.087C82.3919 68.1126 82.5652 68.1711 82.725 68.2625C83.3321 69.0808 84.0255 69.8219 84.805 70.4855C84.9748 70.7448 85.0398 71.0177 85 71.3045C84.8038 71.2355 84.6088 71.1576 84.415 71.0705C83.8379 70.4428 83.1879 69.8968 82.465 69.4325C80.6462 68.5217 78.8045 67.6247 76.94 66.7415C75.425 66.3066 73.93 65.8582 72.455 65.396C71.2664 65.2778 70.0964 65.1219 68.945 64.928C68.7764 63.82 68.7764 62.7085 68.945 61.5935Z" fill="#F8F8F8"/>
</g>
<g id="Group_35">
<path id="Vector_35" fill-rule="evenodd" clip-rule="evenodd" d="M101.445 61.7105C101.575 61.7105 101.705 61.7105 101.835 61.7105C101.835 62.8025 101.835 63.8945 101.835 64.9865C100.394 65.1326 98.9643 65.3472 97.545 65.63C95.7593 66.1869 93.9827 66.7719 92.215 67.385C90.4043 68.3518 88.6276 69.3657 86.885 70.427C86.5145 70.7408 86.1679 71.0724 85.845 71.4215C85.8017 71.3045 85.7583 71.1875 85.715 71.0705C86.9121 69.1738 88.5588 67.6528 90.655 66.5075C90.8289 66.2926 91.0239 66.0976 91.24 65.9225C92.8504 65.0951 94.4754 64.2761 96.115 63.4655C97.8776 62.8071 99.6543 62.2221 101.445 61.7105Z" fill="#F8F8F8"/>
</g>
<g id="Group_36">
<path id="Vector_36" fill-rule="evenodd" clip-rule="evenodd" d="M101.445 61.7105C101.584 61.6012 101.757 61.5621 101.965 61.5935C102.008 62.7457 101.964 63.8766 101.835 64.9865C101.835 63.8945 101.835 62.8025 101.835 61.7105C101.705 61.7105 101.575 61.7105 101.445 61.7105Z" fill="#797875"/>
</g>
<g id="Group_37">
<path id="Vector_37" fill-rule="evenodd" clip-rule="evenodd" d="M64.005 67.0925C63.5842 66.8373 63.1076 66.6618 62.575 66.566C62.3775 66.4079 62.2043 66.2324 62.055 66.0395C61.6304 65.9253 61.2837 65.7303 61.015 65.4545C61.2139 65.5208 61.4089 65.5988 61.6 65.6885C61.6057 65.3404 61.584 64.9894 61.535 64.6355C65.0145 64.9465 68.4595 65.4536 71.87 66.1565C75.1148 66.8834 78.1481 68.0143 80.97 69.5495C82.3634 70.433 83.5116 71.5249 84.415 72.8255C83.6814 72.7867 83.1181 72.4552 82.725 71.831C82.3757 71.7911 82.1157 71.6351 81.945 71.363C81.4277 71.3001 81.016 71.0856 80.71 70.7195C79.0901 70.1092 77.4651 69.4851 75.835 68.8475C74.9157 68.7115 74.0272 68.4775 73.17 68.1455C70.6554 67.691 68.1637 67.223 65.695 66.7415C65.0464 66.644 64.3964 66.6245 63.745 66.683C63.8497 66.8132 63.9364 66.9496 64.005 67.0925Z" fill="#B5B6B8"/>
</g>
<g id="Group_38">
<path id="Vector_38" fill-rule="evenodd" clip-rule="evenodd" d="M109.375 64.9865C109.156 65.0665 109.026 65.2225 108.985 65.4545C109.001 65.5255 109.044 65.5645 109.115 65.5715C108.262 66.2071 107.309 66.714 106.255 67.0925C106.313 66.9038 106.443 66.7672 106.645 66.683C105.861 66.6638 105.081 66.7223 104.305 66.8585C102.825 67.2378 101.308 67.4914 99.755 67.619C98.296 67.9688 96.8444 68.3393 95.4 68.7305C93.7901 69.2927 92.1868 69.8777 90.59 70.4855C89.2228 71.1081 87.9878 71.8881 86.885 72.8255C86.7304 72.9342 86.5571 72.9732 86.365 72.9425C86.5434 72.3122 86.9334 71.8053 87.535 71.4215C87.632 71.2769 87.6753 71.1208 87.665 70.9535C87.8571 70.9842 88.0304 70.9452 88.185 70.8365C88.4017 70.5635 88.6617 70.3295 88.965 70.1345C89.7736 69.7393 90.5319 69.2713 91.24 68.7305C91.898 68.4138 92.5915 68.1798 93.32 68.0285C93.6846 67.8032 94.0531 67.5886 94.425 67.385C99.0512 66.0375 103.796 65.1209 108.66 64.6355C109.016 64.5906 109.255 64.7076 109.375 64.9865Z" fill="#B5B6B9"/>
</g>
<g id="Group_39">
<path id="Vector_39" fill-rule="evenodd" clip-rule="evenodd" d="M109.375 64.9865C109.237 65.1123 109.237 65.2293 109.375 65.3375C109.55 65.1678 109.767 65.0898 110.025 65.1035C109.784 65.3459 109.481 65.5019 109.115 65.5715C109.044 65.5645 109.001 65.5255 108.985 65.4545C109.026 65.2225 109.156 65.0665 109.375 64.9865Z" fill="#72716E"/>
</g>
<g id="Group_40">
<path id="Vector_40" fill-rule="evenodd" clip-rule="evenodd" d="M52.565 65.4545C56.0757 66.8647 59.5641 68.3077 63.03 69.7835C64.589 70.2905 66.0623 70.9535 67.45 71.7725C67.7276 71.8459 68.0093 71.9044 68.295 71.948C68.9945 72.3797 69.7312 72.7503 70.505 73.0595C75.3196 74.9464 80.1078 76.8964 84.87 78.9095C85.6291 78.5462 86.3875 78.1952 87.145 77.8565C87.0979 78.3781 86.7729 78.651 86.17 78.6755C85.9976 78.8275 85.8242 78.9834 85.65 79.1435C85.585 84.0183 85.5633 88.8933 85.585 93.7685C85.3965 94.68 85.2232 95.616 85.065 96.5765C84.7537 96.481 84.4502 96.364 84.155 96.2255C83.9564 96.1308 83.7398 96.0528 83.505 95.9915C83.245 95.9135 82.985 95.8355 82.725 95.7575C82.532 95.555 82.272 95.438 81.945 95.4065C78.7552 94.1234 75.5486 92.8753 72.325 91.6625C72.1728 91.5636 71.9994 91.4857 71.805 91.4285C70.2477 90.9071 68.731 90.3221 67.255 89.6735C67.1028 89.5746 66.9294 89.4967 66.735 89.4395C66.4329 89.4205 66.2162 89.2841 66.085 89.03C65.7993 88.9864 65.5176 88.9279 65.24 88.8545C62.9373 87.8775 60.619 86.9415 58.285 86.0465C58.1059 83.8655 58.0192 81.6815 58.025 79.4945C58.1052 79.4815 58.1702 79.4425 58.22 79.3775C58.2109 76.6295 58.1459 73.8996 58.025 71.1875C57.8629 70.8875 57.6029 70.673 57.245 70.544C55.6983 69.791 54.1383 69.0694 52.565 68.3795C52.565 67.4045 52.565 66.4295 52.565 65.4545Z" fill="#EB171F"/>
</g>
<g id="Group_41">
<path id="Vector_41" fill-rule="evenodd" clip-rule="evenodd" d="M112.495 71.6555C112.415 71.6685 112.35 71.7074 112.3 71.7725C112.235 76.7253 112.213 81.6783 112.235 86.6315C109.416 87.5567 106.643 88.5512 103.915 89.615C103.721 86.7949 103.548 83.9674 103.395 81.1325C102.792 81.1119 102.272 81.2874 101.835 81.659C100.879 81.9446 99.926 82.2371 98.975 82.5365C98.715 82.6925 98.455 82.8485 98.195 83.0045C97.4043 83.2227 96.6243 83.4762 95.855 83.765C95.6822 85.005 95.6822 86.2335 95.855 87.4505C95.855 89.4005 95.855 91.3505 95.855 93.3005C95.6872 93.2728 95.5572 93.3117 95.465 93.4175C92.141 94.7777 88.7177 95.9088 85.195 96.8105C85.3881 95.832 85.5181 94.8569 85.585 93.8855C85.6717 89.0298 85.7583 84.1547 85.845 79.2605C86.5885 78.9471 87.1518 78.4791 87.535 77.8565C94.9234 74.9949 102.29 72.0504 109.635 69.023C110.671 68.8595 111.624 68.5085 112.495 67.97C112.781 67.9264 113.062 67.8679 113.34 67.7945C114.992 67.0113 116.704 66.3484 118.475 65.8055C118.475 66.7805 118.475 67.7555 118.475 68.7305C116.572 69.6079 114.665 70.4854 112.755 71.363C112.64 71.4458 112.554 71.5434 112.495 71.6555Z" fill="#04A550"/>
</g>
<g id="Group_42">
<path id="Vector_42" fill-rule="evenodd" clip-rule="evenodd" d="M102.225 69.0815C101.95 69.3472 101.604 69.5032 101.185 69.5495C101.489 69.3277 101.836 69.1716 102.225 69.0815Z" fill="#949391"/>
</g>
<g id="Group_43">
<path id="Vector_43" fill-rule="evenodd" clip-rule="evenodd" d="M58.025 71.1875C58.1459 73.8996 58.2109 76.6295 58.22 79.3775C58.1702 79.4426 58.1052 79.4815 58.025 79.4945C58.025 76.7255 58.025 73.9565 58.025 71.1875Z" fill="#EF3E42"/>
</g>
<g id="Group_44">
<path id="Vector_44" fill-rule="evenodd" clip-rule="evenodd" d="M73.365 71.7725C73.6737 71.9365 73.9772 72.0925 74.275 72.2405C73.8197 72.2901 73.5164 72.134 73.365 71.7725Z" fill="#9A9997"/>
</g>
<g id="Group_45">
<path id="Vector_45" fill-rule="evenodd" clip-rule="evenodd" d="M112.495 71.6555C112.41 76.6624 112.323 81.6544 112.235 86.6315C112.213 81.6783 112.235 76.7253 112.3 71.7725C112.35 71.7075 112.415 71.6685 112.495 71.6555Z" fill="#CFEEDE"/>
</g>
<g id="Group_46">
<path id="Vector_46" fill-rule="evenodd" clip-rule="evenodd" d="M82.465 76.5695C82.7857 76.5993 83.0457 76.7163 83.245 76.9205C82.9243 76.8907 82.6643 76.7737 82.465 76.5695Z" fill="#989895"/>
</g>
<g id="Group_47">
<path id="Vector_47" fill-rule="evenodd" clip-rule="evenodd" d="M83.245 76.9205C83.5891 76.9707 83.8491 77.1267 84.025 77.3885C83.7044 77.2951 83.4444 77.1392 83.245 76.9205Z" fill="#8A8A87"/>
</g>
<g id="Group_48">
<path id="Vector_48" fill-rule="evenodd" clip-rule="evenodd" d="M87.145 77.8565C87.275 77.8565 87.405 77.8565 87.535 77.8565C87.1517 78.4791 86.5885 78.9471 85.845 79.2605C85.7583 84.1547 85.6717 89.0298 85.585 93.8855C85.585 93.8465 85.585 93.8075 85.585 93.7685C85.5633 88.8934 85.585 84.0183 85.65 79.1435C85.8242 78.9835 85.9976 78.8275 86.17 78.6755C86.7729 78.6511 87.0979 78.3781 87.145 77.8565Z" fill="#50763F"/>
</g>
<g id="Group_49">
<path id="Vector_49" fill-rule="evenodd" clip-rule="evenodd" d="M53.345 81.9515C53.6433 82.0259 53.8599 82.1819 53.995 82.4195C53.702 82.3465 53.4852 82.1905 53.345 81.9515Z" fill="#A09F9D"/>
</g>
<g id="Group_50">
<path id="Vector_50" fill-rule="evenodd" clip-rule="evenodd" d="M95.855 87.4505C95.9846 89.419 96.0279 91.408 95.985 93.4175C95.8117 93.4175 95.6383 93.4175 95.465 93.4175C95.5572 93.3117 95.6872 93.2728 95.855 93.3005C95.855 91.3505 95.855 89.4005 95.855 87.4505Z" fill="#85D4AB"/>
</g>
<g id="Group_51">
<path id="Vector_51" fill-rule="evenodd" clip-rule="evenodd" d="M66.735 89.4395C66.9293 89.4967 67.1028 89.5746 67.255 89.6735C66.9972 89.7136 66.8238 89.6356 66.735 89.4395Z" fill="#F78E91"/>
</g>
<g id="Group_52">
<path id="Vector_52" fill-rule="evenodd" clip-rule="evenodd" d="M71.805 91.4285C71.9993 91.4857 72.1728 91.5636 72.325 91.6625C72.0672 91.7026 71.8938 91.6246 71.805 91.4285Z" fill="#F79396"/>
</g>
<g id="Group_53">
<path id="Vector_53" fill-rule="evenodd" clip-rule="evenodd" d="M85.585 93.7685C85.585 93.8075 85.585 93.8465 85.585 93.8855C85.5181 94.8569 85.3881 95.832 85.195 96.8105C85.0861 96.7705 85.0427 96.6926 85.065 96.5765C85.2232 95.616 85.3965 94.68 85.585 93.7685Z" fill="#76653D"/>
</g>
<g id="Group_54">
<path id="Vector_54" fill-rule="evenodd" clip-rule="evenodd" d="M81.945 95.4065C82.272 95.438 82.532 95.555 82.725 95.7575C82.3981 95.726 82.1381 95.609 81.945 95.4065Z" fill="#F89D9F"/>
</g>
<g id="Group_55">
<path id="Vector_55" fill-rule="evenodd" clip-rule="evenodd" d="M83.505 95.9915C83.7398 96.0528 83.9564 96.1308 84.155 96.2255C83.8585 96.275 83.6418 96.197 83.505 95.9915Z" fill="#F69295"/>
</g>
<g id="Group_56">
<path id="Vector_56" fill-rule="evenodd" clip-rule="evenodd" d="M67.515 96.6935C71.383 96.4713 73.6365 98.0704 74.275 101.491C73.4168 101.503 72.5718 101.581 71.74 101.725C71.5524 100.665 71.0108 99.7876 70.115 99.092C67.4937 98.2743 65.9121 99.1128 65.37 101.608C65.0532 103.265 65.1399 104.903 65.63 106.522C66.5996 108.58 68.1811 109.106 70.375 108.101C71.1901 107.472 71.6451 106.673 71.74 105.703C72.5701 105.861 73.4151 105.939 74.275 105.937C73.7977 108.979 71.8477 110.539 68.425 110.617C65.3916 110.527 63.4632 109.162 62.64 106.522C61.8685 104.065 62.0852 101.686 63.29 99.3845C64.2688 97.922 65.6771 97.0251 67.515 96.6935Z" fill="#000A00"/>
</g>
<g id="Group_57">
<path id="Vector_57" fill-rule="evenodd" clip-rule="evenodd" d="M29.685 96.9275C31.1583 96.9275 32.6317 96.9275 34.105 96.9275C35.1265 99.8613 36.1882 102.786 37.29 105.702C38.33 102.816 39.37 99.9305 40.41 97.0445C41.8945 96.9289 43.3895 96.8899 44.895 96.9275C44.895 101.412 44.895 105.898 44.895 110.382C43.9417 110.382 42.9883 110.382 42.035 110.382C42.0567 106.482 42.035 102.582 41.97 98.6825C40.5833 102.505 39.1967 106.326 37.81 110.148C37.5893 110.293 37.3293 110.371 37.03 110.382C36.7578 110.378 36.4978 110.339 36.25 110.265C34.82 106.404 33.39 102.543 31.96 98.6825C31.895 102.582 31.8733 106.482 31.895 110.382C31.1583 110.382 30.4217 110.382 29.685 110.382C29.685 105.898 29.685 101.412 29.685 96.9275Z" fill="#000A00"/>
</g>
<g id="Group_58">
<path id="Vector_58" fill-rule="evenodd" clip-rule="evenodd" d="M79.475 100.203C80.6085 100.169 81.7352 100.227 82.855 100.379C84.1966 100.689 84.9983 101.45 85.26 102.66C85.3033 104.845 85.3467 107.028 85.39 109.212C85.4693 109.602 85.5343 109.992 85.585 110.382C84.7572 110.421 83.9337 110.382 83.115 110.265C82.9356 109.687 82.784 109.102 82.66 108.51C81.6767 110.172 80.1383 110.854 78.045 110.558C75.611 110.003 74.6793 108.619 75.25 106.404C75.5558 105.871 75.9675 105.423 76.485 105.059C78.4609 104.232 80.5409 103.9 82.725 104.064C82.966 102.876 82.446 102.155 81.165 101.9C79.9421 101.653 78.8804 101.907 77.98 102.66C77.8679 102.846 77.7812 103.041 77.72 103.245C76.9665 103.3 76.2082 103.242 75.445 103.07C76.083 101.306 77.4265 100.35 79.475 100.203Z" fill="#000A00"/>
</g>
<g id="Group_59">
<path id="Vector_59" fill-rule="evenodd" clip-rule="evenodd" d="M93.385 100.203C95.4175 99.9865 96.8042 100.728 97.545 102.426C99.0885 100.188 101.168 99.6612 103.785 100.847C104.412 101.333 104.824 101.938 105.02 102.66C105.085 105.234 105.107 107.808 105.085 110.382C104.218 110.382 103.352 110.382 102.485 110.382C102.507 108.081 102.485 105.78 102.42 103.479C102.141 102.605 101.491 102.176 100.47 102.192C99.2356 102.252 98.4123 102.798 98 103.83C97.8117 106.008 97.7467 108.192 97.805 110.382C96.9383 110.382 96.0717 110.382 95.205 110.382C95.2267 108.081 95.205 105.78 95.14 103.479C94.9047 102.632 94.298 102.203 93.32 102.192C92.0005 102.24 91.1338 102.825 90.72 103.947C90.5319 106.086 90.4669 108.231 90.525 110.382C89.6583 110.382 88.7917 110.382 87.925 110.382C87.925 107.068 87.925 103.752 87.925 100.437C88.7483 100.437 89.5717 100.437 90.395 100.437C90.3734 101.102 90.3951 101.765 90.46 102.426C91.0696 101.272 92.0446 100.531 93.385 100.203Z" fill="#000A00"/>
</g>
<g id="Group_60">
<path id="Vector_60" fill-rule="evenodd" clip-rule="evenodd" d="M112.885 100.203C115.511 100.128 117.093 101.259 117.63 103.596C118.1 105.535 117.797 107.368 116.72 109.095C115.236 110.721 113.437 111.053 111.325 110.09C110.952 109.793 110.627 109.462 110.35 109.095C110.285 110.655 110.263 112.215 110.285 113.775C109.418 113.775 108.552 113.775 107.685 113.775C107.685 109.329 107.685 104.883 107.685 100.437C108.508 100.437 109.332 100.437 110.155 100.437C110.133 100.946 110.155 101.453 110.22 101.958C110.857 101.04 111.746 100.455 112.885 100.203Z" fill="#000A00"/>
</g>
<g id="Group_61">
<path id="Vector_61" fill-rule="evenodd" clip-rule="evenodd" d="M134.205 100.204C135.727 100.06 137.157 100.314 138.495 100.964C139.015 101.393 139.405 101.9 139.665 102.485C138.955 102.64 138.24 102.777 137.52 102.895C136.584 101.848 135.392 101.556 133.945 102.017C133.025 102.459 132.939 103.005 133.685 103.655C135.332 104.045 136.978 104.435 138.625 104.825C140.175 105.822 140.587 107.128 139.86 108.745C138.695 110.077 137.157 110.701 135.245 110.617C133.542 110.671 132.09 110.164 130.89 109.096C130.695 108.745 130.5 108.394 130.305 108.043C131.041 107.818 131.8 107.662 132.58 107.575C133.245 108.4 134.155 108.79 135.31 108.745C135.916 108.75 136.501 108.652 137.065 108.452C137.891 107.571 137.674 106.986 136.415 106.697C134.918 106.553 133.488 106.202 132.125 105.644C130.689 104.48 130.45 103.135 131.41 101.608C132.154 100.815 133.086 100.347 134.205 100.204Z" fill="#000A00"/>
</g>
<g id="Group_62">
<path id="Vector_62" fill-rule="evenodd" clip-rule="evenodd" d="M46.195 100.438C47.1092 100.399 48.0192 100.438 48.925 100.555C49.8197 102.678 50.7514 104.784 51.72 106.873C52.5345 104.771 53.3362 102.665 54.125 100.555C54.8183 100.399 55.5117 100.399 56.205 100.555C54.7149 104.246 53.2632 107.951 51.85 111.67C51.1037 113.678 49.5654 114.438 47.235 113.951C47.1088 113.358 47.0654 112.753 47.105 112.138C47.8971 112.18 48.6771 112.121 49.445 111.962C49.9523 111.556 50.2556 111.049 50.355 110.441C48.9808 107.101 47.5941 103.766 46.195 100.438Z" fill="#000A00"/>
</g>
<g id="Group_63">
<path id="Vector_63" fill-rule="evenodd" clip-rule="evenodd" d="M119.645 100.438C120.512 100.438 121.378 100.438 122.245 100.438C122.223 102.817 122.245 105.196 122.31 107.575C122.837 108.561 123.682 108.854 124.845 108.452C125.624 108.141 126.122 107.614 126.34 106.872C126.526 104.733 126.591 102.588 126.535 100.438C127.402 100.438 128.268 100.438 129.135 100.438C129.135 103.752 129.135 107.068 129.135 110.382C128.312 110.382 127.488 110.382 126.665 110.382C126.687 109.757 126.665 109.133 126.6 108.51C125.58 110.343 123.955 110.987 121.725 110.441C120.57 110.026 119.899 109.266 119.71 108.16C119.645 105.586 119.623 103.012 119.645 100.438Z" fill="#000A00"/>
</g>
<g id="Group_64">
<path id="Vector_64" fill-rule="evenodd" clip-rule="evenodd" d="M112.235 102.193C113.503 102.051 114.348 102.519 114.77 103.597C115.198 104.885 115.198 106.172 114.77 107.458C113.957 108.961 112.765 109.254 111.195 108.335C110.796 107.949 110.515 107.501 110.35 106.99C110.235 105.89 110.278 104.798 110.48 103.714C110.797 102.94 111.382 102.433 112.235 102.193Z" fill="#FEFFFE"/>
</g>
<g id="Group_65">
<path id="Vector_65" fill-rule="evenodd" clip-rule="evenodd" d="M81.165 105.352C81.685 105.352 82.205 105.352 82.725 105.352C82.9014 107.982 81.5581 109.054 78.695 108.569C77.9375 108.202 77.6559 107.637 77.85 106.873C78.1955 106.199 78.7805 105.789 79.605 105.644C80.1464 105.562 80.6664 105.464 81.165 105.352Z" fill="#FEFFFE"/>
</g>
</g>
</g>
<defs>
<filter id="filter0_d_81_859" x="0" y="0" width="170" height="157" filterUnits="userSpaceOnUse" color-interpolation-filters="sRGB">
<feFlood flood-opacity="0" result="BackgroundImageFix"/>
<feColorMatrix in="SourceAlpha" type="matrix" values="0 0 0 0 0 0 0 0 0 0 0 0 0 0 0 0 0 0 127 0" result="hardAlpha"/>
<feOffset/>
<feGaussianBlur stdDeviation="10"/>
<feComposite in2="hardAlpha" operator="out"/>
<feColorMatrix type="matrix" values="0 0 0 0 0 0 0 0 0 0 0 0 0 0 0 0 0 0 0.25 0"/>
<feBlend mode="normal" in2="BackgroundImageFix" result="effect1_dropShadow_81_859"/>
<feBlend mode="normal" in="SourceGraphic" in2="effect1_dropShadow_81_859" result="shape"/>
</filter>
<clipPath id="clip0_81_859">
<rect x="20" y="20" width="130" height="117" rx="45" fill="white"/>
</clipPath>
</defs>
</svg>
