<svg width="360" height="800" viewBox="0 0 360 800" fill="none" xmlns="http://www.w3.org/2000/svg">
<g opacity="0.4" clip-path="url(#clip0_79_3)">
<path fill-rule="evenodd" clip-rule="evenodd" d="M-0.5 -0.5C90.1667 -0.5 180.833 -0.5 271.5 -0.5C219.469 52.8631 167.803 106.53 116.5 160.5C93.0078 184.492 69.3411 208.326 45.5 232C34.6303 236.42 24.6303 235.086 15.5 228C10.298 222.63 4.96467 217.464 -0.5 212.5C-0.5 141.5 -0.5 70.5 -0.5 -0.5Z" fill="#BAFFDF"/>
<path fill-rule="evenodd" clip-rule="evenodd" d="M271.5 -0.5C286.167 -0.5 300.833 -0.5 315.5 -0.5C257.566 60.2688 199.066 120.602 140 180.5C139.536 181.094 139.369 181.761 139.5 182.5C139.167 182.5 138.833 182.5 138.5 182.5C138.631 181.761 138.464 181.094 138 180.5C131.264 173.261 124.098 166.594 116.5 160.5C167.803 106.53 219.469 52.8631 271.5 -0.5Z" fill="#D6FFEC"/>
<path fill-rule="evenodd" clip-rule="evenodd" d="M315.5 -0.5C330.167 -0.5 344.833 -0.5 359.5 -0.5C359.5 28.5 359.5 57.5 359.5 86.5C319.867 126.967 280.367 167.634 241 208.5C233.137 216.698 224.97 224.531 216.5 232C207.627 235.65 198.96 235.317 190.5 231C173.631 214.629 156.631 198.463 139.5 182.5C139.369 181.761 139.536 181.094 140 180.5C199.066 120.602 257.566 60.2688 315.5 -0.5Z" fill="#9AFFD1"/>
<path fill-rule="evenodd" clip-rule="evenodd" d="M359.5 86.5C359.5 202.5 359.5 318.5 359.5 434.5C349.806 444.193 340.473 454.193 331.5 464.5C331.167 464.5 330.833 464.5 330.5 464.5C326.433 458.925 321.766 453.759 316.5 449C291.5 425.333 266.5 401.667 241.5 378C233.013 374.448 224.679 374.781 216.5 379C206.961 387.038 198.294 395.872 190.5 405.5C190.167 405.5 189.833 405.5 189.5 405.5C148.866 365.701 108.033 326.034 67 286.5C61.0049 276.462 61.0049 266.462 67 256.5C91.0365 231.965 114.87 207.298 138.5 182.5C138.833 182.5 139.167 182.5 139.5 182.5C156.631 198.463 173.631 214.629 190.5 231C198.96 235.317 207.627 235.65 216.5 232C224.97 224.531 233.137 216.698 241 208.5C280.367 167.634 319.867 126.967 359.5 86.5Z" fill="#B2FFDC"/>
<path fill-rule="evenodd" clip-rule="evenodd" d="M116.5 160.5C124.098 166.594 131.264 173.261 138 180.5C138.464 181.094 138.631 181.761 138.5 182.5C114.87 207.298 91.0365 231.965 67 256.5C61.0049 266.462 61.0049 276.462 67 286.5C108.033 326.034 148.866 365.701 189.5 405.5C183.092 412.575 176.425 419.242 169.5 425.5C130.731 388.9 92.3979 351.733 54.5 314C50.1667 310.333 45.8333 306.667 41.5 303C31.6058 298.966 22.2725 299.966 13.5 306C8.60254 310.729 3.93588 315.562 -0.5 320.5C-0.5 284.5 -0.5 248.5 -0.5 212.5C4.96467 217.464 10.298 222.63 15.5 228C24.6303 235.086 34.6303 236.42 45.5 232C69.3411 208.326 93.0078 184.492 116.5 160.5Z" fill="#FEFFFE"/>
<path fill-rule="evenodd" clip-rule="evenodd" d="M169.5 425.5C169.5 425.833 169.5 426.167 169.5 426.5C112.806 484.86 56.1392 543.193 -0.5 601.5C-0.5 507.833 -0.5 414.167 -0.5 320.5C3.93588 315.562 8.60254 310.729 13.5 306C22.2725 299.966 31.6058 298.966 41.5 303C45.8333 306.667 50.1667 310.333 54.5 314C92.3979 351.733 130.731 388.9 169.5 425.5Z" fill="#CCFFE7"/>
<path fill-rule="evenodd" clip-rule="evenodd" d="M330.5 464.5C322.032 473.801 313.032 482.634 303.5 491C292.63 495.42 282.63 494.086 273.5 487C245.633 459.966 217.967 432.799 190.5 405.5C198.294 395.872 206.961 387.038 216.5 379C224.679 374.781 233.013 374.448 241.5 378C266.5 401.667 291.5 425.333 316.5 449C321.766 453.759 326.433 458.925 330.5 464.5Z" fill="#9AFFD1"/>
<path fill-rule="evenodd" clip-rule="evenodd" d="M189.5 405.5C189.833 405.5 190.167 405.5 190.5 405.5C217.967 432.799 245.633 459.966 273.5 487C282.63 494.086 292.63 495.42 303.5 491C313.032 482.634 322.032 473.801 330.5 464.5C330.833 464.5 331.167 464.5 331.5 464.5C337.146 469.812 342.813 475.145 348.5 480.5C352.187 477.145 355.853 473.811 359.5 470.5C359.5 477.167 359.5 483.833 359.5 490.5C356.369 487.871 353.369 485.038 350.5 482C349.5 481.333 348.5 481.333 347.5 482C267.333 564.833 187.167 647.667 107 730.5C101.099 740.42 101.099 750.42 107 760.5C120.146 773.63 133.312 786.63 146.5 799.5C119.5 799.5 92.5 799.5 65.5 799.5C54.5266 788.861 43.5266 778.194 32.5 767.5C32.5 767.167 32.5 766.833 32.5 766.5C105.103 691.395 177.936 616.395 251 541.5C260.155 530.325 260.822 518.658 253 506.5C225.601 479.265 197.768 452.599 169.5 426.5C169.5 426.167 169.5 425.833 169.5 425.5C176.425 419.242 183.092 412.575 189.5 405.5Z" fill="#D6FFEC"/>
<path fill-rule="evenodd" clip-rule="evenodd" d="M169.5 426.5C197.768 452.599 225.601 479.265 253 506.5C260.822 518.658 260.155 530.325 251 541.5C177.936 616.395 105.103 691.395 32.5 766.5C21.52 756.522 10.52 746.522 -0.5 736.5C-0.5 691.5 -0.5 646.5 -0.5 601.5C56.1392 543.193 112.806 484.86 169.5 426.5Z" fill="#AFFFDA"/>
<path fill-rule="evenodd" clip-rule="evenodd" d="M359.5 434.5C359.5 446.5 359.5 458.5 359.5 470.5C355.853 473.811 352.187 477.145 348.5 480.5C342.813 475.145 337.146 469.812 331.5 464.5C340.473 454.193 349.806 444.193 359.5 434.5Z" fill="#FEFFFE"/>
<path fill-rule="evenodd" clip-rule="evenodd" d="M359.5 490.5C359.5 564.167 359.5 637.833 359.5 711.5C330.498 740.502 301.831 769.835 273.5 799.5C231.167 799.5 188.833 799.5 146.5 799.5C133.312 786.63 120.146 773.63 107 760.5C101.099 750.42 101.099 740.42 107 730.5C187.167 647.667 267.333 564.833 347.5 482C348.5 481.333 349.5 481.333 350.5 482C353.369 485.038 356.369 487.871 359.5 490.5Z" fill="#B7FFDE"/>
<path fill-rule="evenodd" clip-rule="evenodd" d="M359.5 711.5C359.5 740.833 359.5 770.167 359.5 799.5C330.833 799.5 302.167 799.5 273.5 799.5C301.831 769.835 330.498 740.502 359.5 711.5Z" fill="#D6FFEC"/>
<path fill-rule="evenodd" clip-rule="evenodd" d="M-0.5 736.5C10.52 746.522 21.52 756.522 32.5 766.5C32.5 766.833 32.5 767.167 32.5 767.5C21.4673 777.532 11.134 788.199 1.5 799.5C0.833333 799.5 0.166667 799.5 -0.5 799.5C-0.5 778.5 -0.5 757.5 -0.5 736.5Z" fill="#CCFFE7"/>
<path fill-rule="evenodd" clip-rule="evenodd" d="M32.5 767.5C43.5266 778.194 54.5266 788.861 65.5 799.5C44.1667 799.5 22.8333 799.5 1.5 799.5C11.134 788.199 21.4673 777.532 32.5 767.5Z" fill="#FEFFFE"/>
<g clip-path="url(#clip1_79_3)">
<path fill-rule="evenodd" clip-rule="evenodd" d="M-329.5 -196.5C3.83301 -196.5 337.167 -196.5 670.5 -196.5C670.5 136.833 670.5 470.167 670.5 803.5C337.167 803.5 3.83301 803.5 -329.5 803.5C-329.5 470.167 -329.5 136.833 -329.5 -196.5Z" fill="#FEFEFE"/>
<path fill-rule="evenodd" clip-rule="evenodd" d="M168.5 0.5C175.591 1.481 181.924 4.314 187.5 9C193.076 10.424 197.743 13.258 201.5 17.5C205.844 18.382 209.511 20.382 212.5 23.5C228.875 32.014 244.875 41.18 260.5 51C275.357 57.793 289.69 65.626 303.5 74.5C307.683 75.213 311.016 77.213 313.5 80.5C332.675 90.25 351.342 100.75 369.5 112C375.165 114.664 380.832 117.33 386.5 120C390.622 123.539 395.289 126.039 400.5 127.5C400.5 128.5 400.5 129.5 400.5 130.5C411.522 133.688 421.522 138.855 430.5 146C431.448 146.483 432.448 146.649 433.5 146.5C433.5 147.833 433.5 149.167 433.5 150.5C430.366 151.241 427.366 152.241 424.5 153.5C424.5 154.5 424.5 155.5 424.5 156.5C415.41 159.382 407.076 163.882 399.5 170C395.029 170.537 391.362 172.537 388.5 176C379.565 179.471 371.232 183.971 363.5 189.5C361.516 189.383 359.85 190.05 358.5 191.5C357.438 190.575 357.438 189.575 358.5 188.5C357.575 186.116 355.742 185.116 353 185.5C315.586 189.649 279.086 197.483 243.5 209C240.639 210.74 237.805 212.574 235 214.5C229.396 215.793 224.062 217.793 219 220.5C213.553 225.122 207.72 229.122 201.5 232.5C199.167 234.167 197.167 236.167 195.5 238.5C194.311 239.429 192.978 239.762 191.5 239.5C191.579 240.93 191.246 242.264 190.5 243.5C185.872 246.78 182.872 251.113 181.5 256.5C182.978 256.762 184.311 256.429 185.5 255.5C193.983 247.488 203.483 240.821 214 235.5C226.283 230.305 238.616 225.305 251 220.5C262.111 217.156 273.277 213.99 284.5 211C296.45 209.909 308.117 207.742 319.5 204.5C325.472 203.336 331.472 202.836 337.5 203C335.944 203.72 334.944 204.887 334.5 206.5C326.919 209.446 319.586 212.78 312.5 216.5C312.5 217.5 312.5 218.5 312.5 219.5C308.898 219.692 305.898 221.026 303.5 223.5C300.504 224.27 297.837 225.604 295.5 227.5C284.013 232.843 273.18 239.177 263 246.5C258.129 248.581 253.296 250.747 248.5 253C246.833 254 245.5 255.333 244.5 257C238.565 259.848 232.565 262.515 226.5 265C222.289 269.25 217.289 272.25 211.5 274C208.961 276.527 206.128 278.694 203 280.5C195.48 283.677 188.313 287.51 181.5 292C177.596 294.078 173.596 295.912 169.5 297.5C167.952 295.624 165.952 294.624 163.5 294.5C162.147 292.262 160.147 290.929 157.5 290.5C155.967 288.755 153.967 287.755 151.5 287.5C137.5 278.343 122.833 270.176 107.5 263C101.195 258.692 94.862 254.525 88.5 250.5C86.209 249.235 83.875 247.902 81.5 246.5C72.066 241.908 62.733 237.075 53.5 232C50.632 228.566 46.965 226.732 42.5 226.5C42.5 225.5 42.5 224.5 42.5 223.5C40.436 223.313 38.436 222.813 36.5 222C33.14 218.872 29.473 216.205 25.5 214C19.945 211.719 14.611 209.219 9.50002 206.5C8.97202 205.279 8.30502 204.113 7.50002 203C12.511 202.5 17.511 202.667 22.5 203.5C41.49 207.615 60.657 211.615 80 215.5C86.594 218.338 93.428 220.338 100.5 221.5C113.039 226.95 125.539 232.284 138 237.5C140.354 240.629 143.521 242.462 147.5 243C148.813 245.326 150.813 246.659 153.5 247C156.524 252.335 160.857 255.168 166.5 255.5C159.551 244.384 150.718 235.051 140 227.5C118.293 214.379 94.96 204.713 70 198.5C43.765 192.492 17.265 188.158 -9.49998 185.5C-9.12298 188.525 -8.95598 191.525 -8.99998 194.5C-10.47 193.733 -11.97 193.067 -13.5 192.5C-33.795 181.262 -53.962 169.596 -74 157.5C-75.44 156.852 -76.94 156.519 -78.5 156.5C-78.5 168.5 -78.5 180.5 -78.5 192.5C-78.5 200.833 -78.5 209.167 -78.5 217.5C-78.833 255.506 -78.5 293.506 -77.5 331.5C-75.664 332.028 -73.997 332.694 -72.5 333.5C-71.421 335.543 -69.754 336.876 -67.5 337.5C-65.406 339.559 -63.572 341.893 -62 344.5C-56.823 369.65 -66.989 381.484 -92.5 380C-108.807 371.528 -113.307 358.695 -106 341.5C-103.205 338.189 -100.039 335.523 -96.5 333.5C-94.533 333.739 -92.699 333.406 -91 332.5C-90.5 270.501 -90.333 208.501 -90.5 146.5C-81.751 141.061 -72.751 136.061 -63.5 131.5C-61.456 130.492 -59.456 129.492 -57.5 128.5C-46.763 121.774 -35.763 115.441 -24.5 109.5C-22.03 109.346 -20.03 108.346 -18.5 106.5C-6.53098 99.754 5.46902 92.754 17.5 85.5C20.776 84.201 24.11 82.868 27.5 81.5C27.863 80.817 28.196 80.15 28.5 79.5C33.121 75.849 38.121 72.683 43.5 70C45.788 69.178 48.122 68.511 50.5 68C56.402 63.245 62.902 59.411 70 56.5C73.319 52.772 77.485 50.438 82.5 49.5C83.548 48.452 84.548 47.452 85.5 46.5C86.873 46.657 88.207 46.49 89.5 46C93.078 44.055 96.412 41.888 99.5 39.5C114.071 29.62 129.405 20.954 145.5 13.5C148.701 12.621 151.368 10.955 153.5 8.5C154.695 8.322 155.862 7.989 157 7.5C158.351 5.982 159.851 4.649 161.5 3.5C164.461 3.536 166.794 2.536 168.5 0.5Z" fill="#302F2A"/>
<path fill-rule="evenodd" clip-rule="evenodd" d="M168.5 0.5C166.794 2.536 164.461 3.536 161.5 3.5C163.32 1.552 165.654 0.552 168.5 0.5Z" fill="#999996"/>
<path fill-rule="evenodd" clip-rule="evenodd" d="M153.5 8.50001C151.368 10.955 148.701 12.621 145.5 13.5C146.936 11.917 148.602 10.417 150.5 9.00001C151.448 8.51701 152.448 8.35101 153.5 8.50001Z" fill="#92928F"/>
<path fill-rule="evenodd" clip-rule="evenodd" d="M99.5 39.5C96.412 41.888 93.078 44.055 89.5 46C88.207 46.49 86.873 46.657 85.5 46.5C89.743 43.58 94.41 41.247 99.5 39.5Z" fill="#72716E"/>
<path fill-rule="evenodd" clip-rule="evenodd" d="M28.5 79.5C28.196 80.15 27.863 80.817 27.5 81.5C24.11 82.868 20.776 84.201 17.5 85.5C20.518 82.377 24.184 80.377 28.5 79.5Z" fill="#797875"/>
<path fill-rule="evenodd" clip-rule="evenodd" d="M196.5 84.5C196.631 83.624 196.298 82.957 195.5 82.5C193.447 85.866 191.114 88.866 188.5 91.5C186.348 90.923 186.015 89.756 187.5 88C182.058 84.147 182.225 83.313 188 85.5C189.722 85.389 189.888 84.889 188.5 84C187.034 83.365 185.7 82.531 184.5 81.5C182.591 82.348 180.591 82.682 178.5 82.5C178.719 83.675 178.386 84.675 177.5 85.5C172.58 85.151 167.58 85.151 162.5 85.5C162.5 86.833 162.5 88.167 162.5 89.5C161.637 88.537 160.97 88.537 160.5 89.5C161.04 90.748 161.707 91.915 162.5 93C162.167 93.167 161.833 93.333 161.5 93.5C160.097 91.43 158.43 89.763 156.5 88.5C153.549 87.191 152.216 84.857 152.5 81.5C157.041 82.231 161.041 81.231 164.5 78.5C169.106 80.505 172.439 79.172 174.5 74.5C175.747 76.044 177.08 77.544 178.5 79C180.713 79.626 182.88 79.459 185 78.5C186.826 80.27 188.992 81.603 191.5 82.5C193.409 81.652 195.409 81.318 197.5 81.5C197.737 82.791 197.404 83.791 196.5 84.5Z" fill="#494946"/>
<path fill-rule="evenodd" clip-rule="evenodd" d="M188.5 91.5C188.631 92.376 188.298 93.043 187.5 93.5C180.599 91.342 173.599 91.009 166.5 92.5C164.412 92.38 163.078 91.38 162.5 89.5C162.5 88.167 162.5 86.833 162.5 85.5C167.58 85.151 172.58 85.151 177.5 85.5C178.386 84.675 178.719 83.675 178.5 82.5C180.591 82.682 182.591 82.348 184.5 81.5C185.7 82.531 187.034 83.365 188.5 84C189.888 84.889 189.722 85.389 188 85.5C182.225 83.313 182.058 84.147 187.5 88C186.015 89.756 186.348 90.923 188.5 91.5Z" fill="#31302B"/>
<path fill-rule="evenodd" clip-rule="evenodd" d="M196.5 84.5C194.179 87.796 191.846 91.129 189.5 94.5C189.038 95.88 188.038 96.547 186.5 96.5C178.327 95.182 170.16 95.182 162 96.5C160.699 96.361 159.866 95.695 159.5 94.5C157.975 92.784 156.975 90.784 156.5 88.5C158.43 89.763 160.097 91.43 161.5 93.5C161.833 93.333 162.167 93.167 162.5 93C161.707 91.915 161.04 90.748 160.5 89.5C160.97 88.537 161.637 88.537 162.5 89.5C163.078 91.38 164.412 92.38 166.5 92.5C173.599 91.009 180.599 91.342 187.5 93.5C188.298 93.043 188.631 92.376 188.5 91.5C191.114 88.866 193.447 85.866 195.5 82.5C196.298 82.957 196.631 83.624 196.5 84.5Z" fill="#616160"/>
<path fill-rule="evenodd" clip-rule="evenodd" d="M159.5 94.5C159.866 95.695 160.699 96.361 162 96.5C170.16 95.182 178.327 95.182 186.5 96.5C188.038 96.547 189.038 95.88 189.5 94.5C191.048 94.821 191.715 95.821 191.5 97.5C190.209 97.263 189.209 97.596 188.5 98.5C179.167 98.5 169.833 98.5 160.5 98.5C159.722 97.844 159.056 97.011 158.5 96C158.57 95.235 158.903 94.735 159.5 94.5Z" fill="#171716"/>
<path fill-rule="evenodd" clip-rule="evenodd" d="M160.5 98.5C169.833 98.5 179.167 98.5 188.5 98.5C195.508 98.334 202.508 98.5 209.5 99C211.767 100.081 211.934 101.581 210 103.5C209.264 121.831 208.598 140.164 208 158.5C207.667 149.5 207.333 140.5 207 131.5C207.144 140.889 206.31 149.889 204.5 158.5C204.5 150.5 204.5 142.5 204.5 134.5C204.5 124.833 204.5 115.167 204.5 105.5C205.043 105.44 205.376 105.107 205.5 104.5C195.188 103.501 184.855 103.168 174.5 103.5C163.833 103.5 153.167 103.5 142.5 103.5C142.5 113.5 142.5 123.5 142.5 133.5C142.193 143.582 142.526 153.582 143.5 163.5C142.343 167.46 144.01 169.793 148.5 170.5C144.103 171.014 140.937 169.014 139 164.5C138.167 144.158 138.334 123.825 139.5 103.5C162.798 102.843 186.131 102.176 209.5 101.5C186.167 100.833 162.833 100.167 139.5 99.5C146.468 98.503 153.468 98.17 160.5 98.5Z" fill="#42423E"/>
<path fill-rule="evenodd" clip-rule="evenodd" d="M174.5 103.5C184.855 103.168 195.188 103.501 205.5 104.5C205.376 105.107 205.043 105.44 204.5 105.5C204.5 115.167 204.5 124.833 204.5 134.5C194.5 134.5 184.5 134.5 174.5 134.5C174.5 134.167 174.5 133.833 174.5 133.5C174.5 123.5 174.5 113.5 174.5 103.5Z" fill="#499E6C"/>
<path fill-rule="evenodd" clip-rule="evenodd" d="M174.5 103.5C174.5 113.5 174.5 123.5 174.5 133.5C174.167 133.5 173.833 133.5 173.5 133.5C173.5 123.833 173.5 114.167 173.5 104.5C163.5 104.5 153.5 104.5 143.5 104.5C143.5 114.167 143.5 123.833 143.5 133.5C143.167 133.5 142.833 133.5 142.5 133.5C142.5 123.5 142.5 113.5 142.5 103.5C153.167 103.5 163.833 103.5 174.5 103.5Z" fill="#AA5148"/>
<path fill-rule="evenodd" clip-rule="evenodd" d="M173.5 133.5C163.5 133.5 153.5 133.5 143.5 133.5C143.5 123.833 143.5 114.167 143.5 104.5C153.5 104.5 163.5 104.5 173.5 104.5C173.5 114.167 173.5 123.833 173.5 133.5Z" fill="#EF2428"/>
<path fill-rule="evenodd" clip-rule="evenodd" d="M204.5 105.5C203.506 114.652 203.173 123.985 203.5 133.5C194.167 133.5 184.833 133.5 175.5 133.5C175.5 123.833 175.5 114.167 175.5 104.5C185.348 104.173 195.014 104.506 204.5 105.5Z" fill="#16AA56"/>
<path fill-rule="evenodd" clip-rule="evenodd" d="M177.5 119.5C179.048 119.179 179.715 118.179 179.5 116.5C180.833 116.5 182.167 116.5 183.5 116.5C183.263 115.209 183.596 114.209 184.5 113.5C185.15 113.804 185.817 114.137 186.5 114.5C187.452 112.955 187.785 111.288 187.5 109.5C188.5 109.5 189.5 109.5 190.5 109.5C190.5 110.833 190.5 112.167 190.5 113.5C192.143 113.52 193.476 112.853 194.5 111.5C195.148 115.638 196.815 116.305 199.5 113.5C200.452 114.533 200.452 115.7 199.5 117C200.893 118.301 201.393 119.801 201 121.5C195.037 125.298 188.537 126.465 181.5 125C177.726 124.453 176.393 122.619 177.5 119.5Z" fill="#E1F4EA"/>
<path fill-rule="evenodd" clip-rule="evenodd" d="M184.5 117.5C187.85 117.335 191.183 117.502 194.5 118C198.64 119.878 198.473 121.378 194 122.5C192.604 121.606 191.104 120.939 189.5 120.5C187.098 122.049 184.432 122.716 181.5 122.5C181.31 120.041 182.31 118.374 184.5 117.5Z" fill="#2CAB5C"/>
<path fill-rule="evenodd" clip-rule="evenodd" d="M184.5 113.5C183.596 114.209 183.263 115.209 183.5 116.5C182.167 116.5 180.833 116.5 179.5 116.5C179.715 118.179 179.048 119.179 177.5 119.5C177.693 117.914 178.027 116.247 178.5 114.5C179.891 115.645 181.224 115.645 182.5 114.5C181.355 113.109 181.355 111.776 182.5 110.5C183.919 111.005 184.585 112.005 184.5 113.5Z" fill="#8FD5AF"/>
<path fill-rule="evenodd" clip-rule="evenodd" d="M161.5 105.5C164.5 105.5 167.5 105.5 170.5 105.5C170.579 106.93 170.246 108.264 169.5 109.5C171.012 110.249 172.012 111.416 172.5 113C171.013 115.821 168.846 117.987 166 119.5C165.517 120.448 165.351 121.448 165.5 122.5C169.938 121.425 171.938 123.092 171.5 127.5C168.678 127.678 166.011 128.345 163.5 129.5C159.939 128.193 156.273 127.36 152.5 127C150.714 126.215 149.214 125.049 148 123.5C147.244 119.312 146.078 115.312 144.5 111.5C147.397 110.091 150.063 110.424 152.5 112.5C155.279 109.702 158.279 107.368 161.5 105.5Z" fill="#F47873"/>
<path fill-rule="evenodd" clip-rule="evenodd" d="M162.5 107.5C164.199 107.34 165.866 107.506 167.5 108C166.045 110.016 164.045 110.849 161.5 110.5C160.746 113.838 159.079 116.672 156.5 119C157.128 121.526 158.461 122.359 160.5 121.5C163.068 123.717 166.068 124.884 169.5 125C167.129 125.735 164.795 126.568 162.5 127.5C158.991 125.931 155.324 124.765 151.5 124C148.652 120.567 147.985 116.734 149.5 112.5C150.951 114.559 152.951 115.559 155.5 115.5C156.09 111.246 158.424 108.58 162.5 107.5Z" fill="#ED2125"/>
<path fill-rule="evenodd" clip-rule="evenodd" d="M143.5 133.5C153.5 133.5 163.5 133.5 173.5 133.5C173.833 133.5 174.167 133.5 174.5 133.5C174.5 133.833 174.5 134.167 174.5 134.5C174.5 145.5 174.5 156.5 174.5 167.5C176.167 167.5 177.833 167.5 179.5 167.5C177.393 168.468 175.059 168.802 172.5 168.5C170.862 167.343 169.196 166.176 167.5 165C160.476 164.831 153.476 164.331 146.5 163.5C145.32 161.546 144.654 159.379 144.5 157C144.506 154.967 144.839 153.134 145.5 151.5C150.568 154.5 154.901 158.167 158.5 162.5C159.167 162.333 159.833 162.167 160.5 162C163.081 157.082 166.748 153.082 171.5 150C170.941 147.812 169.607 147.146 167.5 148C164.62 151.217 161.453 154.05 158 156.5C155.188 153.688 152.355 150.855 149.5 148C148.072 147.421 146.738 147.588 145.5 148.5C144.787 143.602 144.121 138.602 143.5 133.5Z" fill="#A57569"/>
<path fill-rule="evenodd" clip-rule="evenodd" d="M174.5 134.5C184.5 134.5 194.5 134.5 204.5 134.5C204.5 142.5 204.5 150.5 204.5 158.5C204.919 161.325 203.919 163.491 201.5 165C194.165 166.091 186.832 166.924 179.5 167.5C177.833 167.5 176.167 167.5 174.5 167.5C174.5 156.5 174.5 145.5 174.5 134.5Z" fill="#BBBDBF"/>
<path fill-rule="evenodd" clip-rule="evenodd" d="M157.5 138.5C160.114 138.852 161.781 140.352 162.5 143C161.652 145.77 161.319 148.603 161.5 151.5C159.833 151.5 158.167 151.5 156.5 151.5C156.716 148.568 156.049 145.902 154.5 143.5C155.092 141.577 156.092 139.911 157.5 138.5Z" fill="#E1D6D3"/>
<path fill-rule="evenodd" clip-rule="evenodd" d="M157.5 142.5C158.5 142.5 159.5 142.5 160.5 142.5C160.5 143.5 160.5 144.5 160.5 145.5C159.5 145.5 158.5 145.5 157.5 145.5C157.5 144.5 157.5 143.5 157.5 142.5Z" fill="#4D4F50"/>
<path fill-rule="evenodd" clip-rule="evenodd" d="M95.5 146.5C107.205 153.359 118.538 160.859 129.5 169C137.236 176.947 145.07 184.781 153 192.5C157.698 198.878 162.032 205.544 166 212.5C167.605 217.424 169.439 222.257 171.5 227C171.333 227.833 171.167 228.667 171 229.5C155.813 209.764 137.48 193.764 116 181.5C108.657 177.669 101.157 174.336 93.5 171.5C92.912 162.897 93.578 154.564 95.5 146.5Z" fill="#B6B6B9"/>
<path fill-rule="evenodd" clip-rule="evenodd" d="M253.5 170.5C250.202 174.11 246.036 176.11 241 176.5C233.371 179.979 226.205 184.145 219.5 189C209.949 195.615 200.949 202.948 192.5 211C187.53 217.162 182.53 223.329 177.5 229.5C176.585 228.672 175.919 227.672 175.5 226.5C181.763 210.764 190.93 197.097 203 185.5C205.5 180.333 209.333 176.5 214.5 174C217.012 170.989 219.678 168.156 222.5 165.5C229.116 161.703 235.283 157.37 241 152.5C243.922 151.616 246.755 150.616 249.5 149.5C251.042 148.699 252.708 148.366 254.5 148.5C254.797 155.92 254.464 163.254 253.5 170.5Z" fill="#B5B6B9"/>
<path fill-rule="evenodd" clip-rule="evenodd" d="M142.5 133.5C142.833 133.5 143.167 133.5 143.5 133.5C144.121 138.602 144.787 143.602 145.5 148.5C145.5 149.5 145.5 150.5 145.5 151.5C144.839 153.134 144.506 154.967 144.5 157C144.654 159.379 145.32 161.546 146.5 163.5C153.476 164.331 160.476 164.831 167.5 165C169.196 166.176 170.862 167.343 172.5 168.5C170.875 169.325 169.208 168.992 167.5 167.5C160.524 166.669 153.524 166.169 146.5 166C145.309 165.302 144.309 164.469 143.5 163.5C142.526 153.582 142.193 143.582 142.5 133.5Z" fill="#AC8E85"/>
<path fill-rule="evenodd" clip-rule="evenodd" d="M253.5 170.5C254.464 163.254 254.797 155.92 254.5 148.5C252.708 148.366 251.042 148.699 249.5 149.5C250.918 147.692 252.918 147.025 255.5 147.5C256.132 155.573 255.465 163.24 253.5 170.5Z" fill="#70706F"/>
<path fill-rule="evenodd" clip-rule="evenodd" d="M189.5 140.5C190.5 140.5 191.5 140.5 192.5 140.5C192.525 143.96 193.192 147.294 194.5 150.5C196.167 149.167 197.833 147.833 199.5 146.5C199.833 147.167 200.167 147.833 200.5 148.5C198.892 152.04 196.559 155.04 193.5 157.5C192.833 159.833 192.167 162.167 191.5 164.5C190.702 162.922 190.202 161.256 190 159.5C184.846 157.013 181.013 153.179 178.5 148C178.833 147.5 179.167 147 179.5 146.5C181.39 148.578 183.724 149.911 186.5 150.5C187.015 146.919 188.015 143.586 189.5 140.5Z" fill="#27A85B"/>
<path fill-rule="evenodd" clip-rule="evenodd" d="M145.5 151.5C145.5 150.5 145.5 149.5 145.5 148.5C146.738 147.588 148.072 147.421 149.5 148C152.355 150.855 155.188 153.688 158 156.5C161.453 154.05 164.62 151.217 167.5 148C169.607 147.146 170.941 147.812 171.5 150C166.748 153.082 163.081 157.082 160.5 162C159.833 162.167 159.167 162.333 158.5 162.5C154.901 158.167 150.568 154.5 145.5 151.5Z" fill="#F3EEEC"/>
<path fill-rule="evenodd" clip-rule="evenodd" d="M47.5 159.5C61.454 164.133 75.288 169.133 89 174.5C96.917 179.244 105.084 183.41 113.5 187C119.38 191.539 125.713 195.539 132.5 199C138.777 203.636 144.444 208.969 149.5 215C150.938 215.219 152.271 215.719 153.5 216.5C158.17 223.494 163.504 229.828 169.5 235.5C170.806 237.716 171.306 240.049 171 242.5C169.491 241.91 167.991 241.244 166.5 240.5C162.061 235.135 157.061 230.468 151.5 226.5C137.509 218.715 123.342 211.049 109 203.5C97.346 199.783 85.846 195.95 74.5 192C65.357 190.99 56.357 189.657 47.5 188C46.203 178.53 46.203 169.03 47.5 159.5Z" fill="#F8F8F8"/>
<path fill-rule="evenodd" clip-rule="evenodd" d="M297.5 160.5C298.5 160.5 299.5 160.5 300.5 160.5C300.5 169.833 300.5 179.167 300.5 188.5C289.418 189.749 278.418 191.583 267.5 194C253.764 198.76 240.098 203.76 226.5 209C212.572 217.263 198.905 225.929 185.5 235C182.65 237.682 179.984 240.516 177.5 243.5C177.167 242.5 176.833 241.5 176.5 240.5C185.709 224.289 198.376 211.289 214.5 201.5C215.838 199.663 217.338 197.997 219 196.5C231.388 189.428 243.888 182.428 256.5 175.5C270.059 169.873 283.726 164.873 297.5 160.5Z" fill="#F8F8F8"/>
<path fill-rule="evenodd" clip-rule="evenodd" d="M297.5 160.5C298.568 159.566 299.901 159.232 301.5 159.5C301.827 169.348 301.494 179.014 300.5 188.5C300.5 179.167 300.5 169.833 300.5 160.5C299.5 160.5 298.5 160.5 297.5 160.5Z" fill="#797875"/>
<path fill-rule="evenodd" clip-rule="evenodd" d="M9.5 206.5C6.263 204.319 2.597 202.819 -1.5 202C-3.019 200.649 -4.352 199.149 -5.5 197.5C-8.766 196.524 -11.433 194.857 -13.5 192.5C-11.97 193.067 -10.47 193.733 -9 194.5C-8.956 191.525 -9.123 188.525 -9.5 185.5C17.265 188.158 43.765 192.492 70 198.5C94.96 204.713 118.293 214.379 140 227.5C150.718 235.051 159.551 244.384 166.5 255.5C160.857 255.168 156.524 252.335 153.5 247C150.813 246.659 148.813 245.326 147.5 243C143.521 242.462 140.354 240.629 138 237.5C125.539 232.284 113.039 226.95 100.5 221.5C93.428 220.338 86.594 218.338 80 215.5C60.657 211.615 41.49 207.615 22.5 203.5C17.511 202.667 12.511 202.5 7.5 203C8.305 204.113 8.972 205.279 9.5 206.5Z" fill="#B5B6B8"/>
<path fill-rule="evenodd" clip-rule="evenodd" d="M358.5 188.5C356.815 189.184 355.815 190.517 355.5 192.5C355.624 193.107 355.957 193.44 356.5 193.5C349.941 198.932 342.608 203.265 334.5 206.5C334.944 204.887 335.944 203.72 337.5 203C331.472 202.836 325.472 203.336 319.5 204.5C308.117 207.742 296.45 209.909 284.5 211C273.277 213.99 262.111 217.156 251 220.5C238.616 225.305 226.283 230.305 214 235.5C203.483 240.821 193.983 247.488 185.5 255.5C184.311 256.429 182.978 256.762 181.5 256.5C182.872 251.113 185.872 246.78 190.5 243.5C191.246 242.264 191.579 240.93 191.5 239.5C192.978 239.762 194.311 239.429 195.5 238.5C197.167 236.167 199.167 234.167 201.5 232.5C207.72 229.122 213.553 225.122 219 220.5C224.062 217.793 229.396 215.793 235 214.5C237.805 212.574 240.639 210.74 243.5 209C279.086 197.483 315.586 189.649 353 185.5C355.742 185.116 357.575 186.116 358.5 188.5Z" fill="#B5B6B9"/>
<path fill-rule="evenodd" clip-rule="evenodd" d="M358.5 188.5C357.438 189.575 357.438 190.575 358.5 191.5C359.85 190.05 361.516 189.383 363.5 189.5C361.65 191.572 359.317 192.905 356.5 193.5C355.957 193.44 355.624 193.107 355.5 192.5C355.815 190.517 356.815 189.184 358.5 188.5Z" fill="#72716E"/>
<path fill-rule="evenodd" clip-rule="evenodd" d="M-78.5 192.5C-51.495 204.553 -24.661 216.886 2 229.5C13.992 233.833 25.325 239.5 36 246.5C38.135 247.127 40.302 247.627 42.5 248C47.881 251.69 53.548 254.857 59.5 257.5C96.535 273.627 133.368 290.294 170 307.5C175.839 304.395 181.673 301.395 187.5 298.5C187.138 302.958 184.638 305.291 180 305.5C178.674 306.799 177.34 308.132 176 309.5C175.5 351.165 175.333 392.832 175.5 434.5C174.05 442.291 172.717 450.291 171.5 458.5C169.105 457.684 166.771 456.684 164.5 455.5C162.972 454.691 161.306 454.024 159.5 453.5C157.5 452.833 155.5 452.167 153.5 451.5C152.015 449.769 150.015 448.769 147.5 448.5C122.963 437.533 98.297 426.866 73.5 416.5C72.329 415.655 70.995 414.989 69.5 414.5C57.521 410.044 45.854 405.044 34.5 399.5C33.329 398.655 31.995 397.989 30.5 397.5C28.176 397.338 26.509 396.172 25.5 394C23.302 393.627 21.135 393.127 19 392.5C1.287 384.15 -16.546 376.15 -34.5 368.5C-35.878 349.859 -36.545 331.192 -36.5 312.5C-35.883 312.389 -35.383 312.056 -35 311.5C-35.07 288.013 -35.57 264.68 -36.5 241.5C-37.747 238.936 -39.747 237.103 -42.5 236C-54.398 229.564 -66.398 223.397 -78.5 217.5C-78.5 209.167 -78.5 200.833 -78.5 192.5Z" fill="#EB171F"/>
<path fill-rule="evenodd" clip-rule="evenodd" d="M382.5 245.5C381.883 245.611 381.383 245.944 381 246.5C380.5 288.832 380.333 331.165 380.5 373.5C358.815 381.408 337.481 389.908 316.5 399C315.008 374.897 313.675 350.73 312.5 326.5C307.861 326.324 303.861 327.824 300.5 331C293.148 333.441 285.815 335.941 278.5 338.5C276.5 339.833 274.5 341.167 272.5 342.5C266.418 344.365 260.418 346.532 254.5 349C253.171 359.598 253.171 370.098 254.5 380.5C254.5 397.167 254.5 413.833 254.5 430.5C253.209 430.263 252.209 430.596 251.5 431.5C225.931 443.126 199.598 452.793 172.5 460.5C173.985 452.137 174.985 443.803 175.5 435.5C176.167 393.998 176.833 352.331 177.5 310.5C183.219 307.821 187.552 303.821 190.5 298.5C247.334 274.042 304 248.875 360.5 223C368.469 221.603 375.802 218.603 382.5 214C384.698 213.627 386.865 213.127 389 212.5C401.711 205.806 414.878 200.14 428.5 195.5C428.5 203.833 428.5 212.167 428.5 220.5C413.859 227.999 399.193 235.499 384.5 243C383.619 243.708 382.953 244.542 382.5 245.5Z" fill="#04A550"/>
<path fill-rule="evenodd" clip-rule="evenodd" d="M303.5 223.5C301.388 225.771 298.721 227.104 295.5 227.5C297.837 225.604 300.504 224.27 303.5 223.5Z" fill="#949391"/>
<path fill-rule="evenodd" clip-rule="evenodd" d="M81.5 246.5C83.875 247.902 86.209 249.235 88.5 250.5C84.998 250.924 82.665 249.59 81.5 246.5Z" fill="#9A9997"/>
<path fill-rule="evenodd" clip-rule="evenodd" d="M151.5 287.5C153.967 287.755 155.967 288.755 157.5 290.5C155.033 290.245 153.033 289.245 151.5 287.5Z" fill="#989895"/>
<path fill-rule="evenodd" clip-rule="evenodd" d="M157.5 290.5C160.147 290.929 162.147 292.262 163.5 294.5C161.034 293.702 159.034 292.369 157.5 290.5Z" fill="#8A8A87"/>
<path fill-rule="evenodd" clip-rule="evenodd" d="M187.5 298.5C188.5 298.5 189.5 298.5 190.5 298.5C187.552 303.821 183.219 307.821 177.5 310.5C176.833 352.331 176.167 393.998 175.5 435.5C175.5 435.167 175.5 434.833 175.5 434.5C175.333 392.832 175.5 351.165 176 309.5C177.34 308.132 178.674 306.799 180 305.5C184.638 305.291 187.138 302.958 187.5 298.5Z" fill="#50763F"/>
<path fill-rule="evenodd" clip-rule="evenodd" d="M254.5 380.5C255.497 397.325 255.83 414.325 255.5 431.5C254.167 431.5 252.833 431.5 251.5 431.5C252.209 430.596 253.209 430.263 254.5 430.5C254.5 413.833 254.5 397.167 254.5 380.5Z" fill="#85D4AB"/>
<path fill-rule="evenodd" clip-rule="evenodd" d="M30.5 397.5C31.995 397.989 33.329 398.655 34.5 399.5C32.517 399.843 31.183 399.176 30.5 397.5Z" fill="#F78E91"/>
<path fill-rule="evenodd" clip-rule="evenodd" d="M69.5 414.5C70.995 414.989 72.329 415.655 73.5 416.5C71.517 416.843 70.183 416.176 69.5 414.5Z" fill="#F79396"/>
<path fill-rule="evenodd" clip-rule="evenodd" d="M175.5 434.5C175.5 434.833 175.5 435.167 175.5 435.5C174.985 443.803 173.985 452.137 172.5 460.5C171.662 460.158 171.328 459.492 171.5 458.5C172.717 450.291 174.05 442.291 175.5 434.5Z" fill="#76653D"/>
<path fill-rule="evenodd" clip-rule="evenodd" d="M147.5 448.5C150.015 448.769 152.015 449.769 153.5 451.5C150.985 451.231 148.985 450.231 147.5 448.5Z" fill="#F89D9F"/>
<path fill-rule="evenodd" clip-rule="evenodd" d="M159.5 453.5C161.306 454.024 162.972 454.691 164.5 455.5C162.219 455.923 160.552 455.256 159.5 453.5Z" fill="#F69295"/>
<path fill-rule="evenodd" clip-rule="evenodd" d="M36.5 459.5C66.254 457.601 83.588 471.268 88.5 500.5C81.898 500.61 75.398 501.277 69 502.5C67.557 493.445 63.391 485.945 56.5 480C36.336 473.011 24.17 480.178 20 501.5C17.563 515.667 18.23 529.667 22 543.5C29.458 561.094 41.624 565.594 58.5 557C64.77 551.628 68.27 544.795 69 536.5C75.385 537.855 81.885 538.522 88.5 538.5C84.828 564.502 69.828 577.836 43.5 578.5C20.166 577.739 5.332 566.072 -1 543.5C-6.935 522.506 -5.268 502.172 4 482.5C11.529 470 22.362 462.334 36.5 459.5Z" fill="#000A00"/>
<path fill-rule="evenodd" clip-rule="evenodd" d="M128.5 489.5C137.219 489.203 145.886 489.703 154.5 491C164.82 493.652 170.987 500.152 173 510.5C173.333 529.167 173.667 547.833 174 566.5C174.61 569.827 175.11 573.161 175.5 576.5C169.132 576.83 162.798 576.496 156.5 575.5C155.12 570.559 153.954 565.559 153 560.5C145.436 574.698 133.602 580.532 117.5 578C98.777 573.259 91.61 561.426 96 542.5C98.352 537.942 101.519 534.109 105.5 531C120.699 523.931 136.699 521.098 153.5 522.5C155.354 512.346 151.354 506.179 141.5 504C132.093 501.892 123.926 504.059 117 510.5C116.138 512.087 115.471 513.754 115 515.5C109.204 515.968 103.371 515.468 97.5 514C102.408 498.921 112.742 490.754 128.5 489.5Z" fill="#000A00"/>
<path fill-rule="evenodd" clip-rule="evenodd" d="M235.5 489.5C251.135 487.645 261.802 493.979 267.5 508.5C279.373 489.365 295.373 484.865 315.5 495C320.327 499.158 323.494 504.325 325 510.5C325.5 532.497 325.667 554.497 325.5 576.5C318.833 576.5 312.167 576.5 305.5 576.5C305.667 556.831 305.5 537.164 305 517.5C302.851 510.025 297.851 506.359 290 506.5C280.505 507.009 274.172 511.675 271 520.5C269.552 539.112 269.052 557.778 269.5 576.5C262.833 576.5 256.167 576.5 249.5 576.5C249.667 556.831 249.5 537.164 249 517.5C247.19 510.256 242.523 506.589 235 506.5C224.85 506.904 218.183 511.904 215 521.5C213.553 539.778 213.053 558.111 213.5 576.5C206.833 576.5 200.167 576.5 193.5 576.5C193.5 548.167 193.5 519.833 193.5 491.5C199.833 491.5 206.167 491.5 212.5 491.5C212.334 497.176 212.501 502.843 213 508.5C217.689 498.629 225.189 492.296 235.5 489.5Z" fill="#000A00"/>
<path fill-rule="evenodd" clip-rule="evenodd" d="M385.5 489.5C405.703 488.855 417.87 498.522 422 518.5C425.619 535.068 423.286 550.735 415 565.5C403.582 579.395 389.748 582.229 373.5 574C370.628 571.463 368.128 568.63 366 565.5C365.5 578.829 365.333 592.163 365.5 605.5C358.833 605.5 352.167 605.5 345.5 605.5C345.5 567.5 345.5 529.5 345.5 491.5C351.833 491.5 358.167 491.5 364.5 491.5C364.334 495.846 364.501 500.179 365 504.5C369.903 496.653 376.736 491.653 385.5 489.5Z" fill="#000A00"/>
<path fill-rule="evenodd" clip-rule="evenodd" d="M141.5 533.5C145.5 533.5 149.5 533.5 153.5 533.5C154.857 555.98 144.524 565.147 122.5 561C116.673 557.867 114.507 553.034 116 546.5C118.658 540.741 123.158 537.241 129.5 536C133.665 535.295 137.665 534.461 141.5 533.5Z" fill="#FEFFFE"/>
</g>
</g>
<defs>
<clipPath id="clip0_79_3">
<rect width="360" height="800" fill="white"/>
</clipPath>
<clipPath id="clip1_79_3">
<rect width="1000" height="1000" fill="white" transform="translate(-329 -196)"/>
</clipPath>
</defs>
</svg>
